<?xml version="1.0" standalone="no"?>
<!DOCTYPE svg PUBLIC "-//W3C//DTD SVG 20010904//EN"
 "http://www.w3.org/TR/2001/REC-SVG-20010904/DTD/svg10.dtd">
<svg version="1.0" xmlns="http://www.w3.org/2000/svg"
 width="700.000000pt" height="700.000000pt" viewBox="0 0 700.000000 700.000000"
 preserveAspectRatio="xMidYMid meet">
<metadata>
Created by potrace 1.14, written by Peter Selinger 2001-2017
</metadata>
<g transform="translate(0.000000,700.000000) scale(0.100000,-0.100000)"
fill="#000000" stroke="none">
<path d="M3279 6996 c-2 -2 -42 -7 -89 -10 -96 -7 -96 -8 -325 -42 -16 -3 -37
-7 -45 -9 -8 -2 -26 -6 -40 -9 -14 -2 -81 -18 -150 -36 -1169 -296 -2113
-1195 -2474 -2355 -28 -90 -64 -224 -72 -270 -3 -16 -10 -50 -15 -75 -14 -59
-15 -67 -24 -120 -3 -25 -9 -58 -11 -74 -3 -16 -7 -50 -9 -75 -3 -25 -8 -82
-12 -126 -15 -157 -8 -587 12 -706 2 -13 7 -51 10 -83 20 -198 110 -537 207
-784 94 -240 194 -432 343 -657 213 -321 470 -597 785 -842 71 -55 238 -173
245 -173 3 0 35 -20 73 -44 167 -107 466 -246 697 -324 175 -59 429 -121 564
-138 25 -3 47 -7 50 -9 3 -1 40 -6 81 -10 41 -4 89 -9 105 -12 17 -2 192 -7
391 -10 l361 -5 99 393 c54 217 99 396 99 399 0 3 54 218 119 478 65 260 117
475 114 477 -2 3 -225 5 -494 6 -527 1 -619 7 -809 55 -482 122 -902 459
-1125 904 -134 267 -191 522 -185 825 2 94 6 184 10 200 3 17 10 55 16 85 6
30 12 66 15 80 10 49 47 166 76 240 181 459 544 816 1010 996 89 35 247 78
328 89 25 4 56 9 70 12 14 3 461 8 995 10 533 2 971 6 973 8 2 2 102 396 222
875 l218 871 -1203 -1 c-662 -1 -1204 -3 -1206 -4z"/>
<path d="M4815 1741 c3 -5 1 -13 -5 -16 -8 -5 -7 -12 2 -23 11 -13 11 -14 -1
-7 -11 6 -13 3 -9 -13 4 -12 3 -20 -2 -17 -4 3 -11 -12 -15 -33 -4 -20 -6 -37
-4 -37 1 0 -3 -9 -9 -21 -8 -16 -8 -24 1 -34 9 -10 9 -11 -2 -5 -11 6 -13 3
-9 -13 4 -12 3 -20 -2 -17 -6 4 -22 -50 -22 -72 0 -1 -6 -23 -14 -49 -7 -25
-11 -50 -8 -55 3 -5 1 -9 -4 -9 -14 0 -21 -60 -8 -60 6 0 3 -5 -7 -11 -9 -6
-15 -14 -13 -18 3 -4 -2 -26 -10 -50 -8 -23 -12 -46 -9 -51 3 -5 1 -11 -5 -15
-6 -4 -8 -10 -5 -15 3 -5 1 -11 -5 -15 -5 -3 -10 -15 -10 -27 0 -15 4 -18 13
-12 7 5 6 2 -3 -6 -18 -17 -53 -136 -45 -151 4 -5 2 -9 -3 -9 -6 0 -9 -13 -8
-29 1 -17 -2 -27 -8 -24 -5 4 -7 -3 -4 -15 3 -12 2 -22 -3 -24 -5 -2 -10 -17
-12 -33 -1 -17 -4 -32 -7 -35 -3 -3 -14 -42 -26 -87 -14 -59 -17 -86 -10 -94
8 -9 8 -10 0 -6 -9 5 -41 -86 -36 -105 1 -4 -4 -22 -11 -40 -8 -18 -13 -40
-12 -48 1 -8 -3 -20 -8 -27 -5 -7 -6 -17 -2 -23 3 -5 1 -10 -6 -10 -8 0 -7 -5
2 -17 12 -14 12 -16 0 -8 -11 6 -13 3 -9 -13 4 -12 3 -20 -2 -17 -4 3 -11 -12
-16 -33 -10 -49 -9 -47 -28 -118 -9 -34 -16 -65 -16 -68 0 -3 45 -6 101 -6 77
0 98 3 93 13 -6 9 -4 9 7 1 8 -6 52 -11 99 -11 47 0 91 5 99 11 11 8 13 8 7
-1 -4 -8 -2 -13 8 -13 23 0 42 66 24 87 -8 10 -7 12 5 8 12 -5 17 5 23 47 5
29 8 59 7 65 0 7 3 10 7 8 8 -5 26 75 23 103 0 6 4 12 9 12 6 0 8 6 5 14 -3 7
-2 17 3 22 4 5 11 25 14 44 3 19 9 53 15 74 5 22 7 44 4 49 -4 6 -1 7 7 2 10
-6 12 0 8 23 -2 17 -1 29 4 26 4 -3 9 4 9 15 2 24 3 30 12 51 14 31 46 194 40
203 -3 6 -2 7 4 4 6 -4 19 35 33 96 12 56 35 146 50 200 15 53 23 97 19 97 -5
0 -9 5 -9 12 0 6 3 8 7 4 9 -9 50 139 56 197 1 9 4 17 8 17 4 0 6 15 5 34 -1
19 2 32 6 30 5 -3 9 4 9 15 2 21 5 39 9 44 1 1 3 9 5 17 2 8 7 26 11 39 6 19
4 23 -7 17 -8 -4 -6 -1 3 6 9 8 19 26 22 41 l5 27 -220 0 c-133 0 -218 -4
-214 -9z m213 -26 c-3 -3 -9 2 -12 12 -6 14 -5 15 5 6 7 -7 10 -15 7 -18z
m-74 -34 c-7 -8 -54 -9 -59 -2 -2 4 12 7 30 7 19 0 32 -3 29 -5z m136 -1 c0
-5 -2 -10 -4 -10 -3 0 -8 5 -11 10 -3 6 -1 10 4 10 6 0 11 -4 11 -10z m44 2
c2 -4 -4 -8 -14 -8 -10 0 -16 4 -14 8 3 4 9 8 14 8 5 0 11 -4 14 -8z m36 4 c0
-3 -4 -8 -10 -11 -5 -3 -10 -1 -10 4 0 6 5 11 10 11 6 0 10 -2 10 -4z m-320
-28 c0 -4 -4 -8 -9 -8 -6 0 -12 4 -15 8 -3 5 1 9 9 9 8 0 15 -4 15 -9z m72
-13 c2 3 4 -11 3 -30 0 -18 -3 -36 -6 -40 -3 -3 -5 7 -4 22 1 16 -5 37 -14 48
-15 18 -15 19 0 7 9 -6 18 -10 21 -7z m152 -4 c14 -15 15 -21 4 -27 -7 -4 -10
-3 -5 1 4 5 0 17 -10 27 -9 10 -14 18 -11 18 3 0 13 -9 22 -19z m103 1 c-10
-10 -14 -22 -10 -27 5 -4 2 -5 -5 -1 -11 6 -10 12 4 27 9 10 19 19 22 19 3 0
-2 -8 -11 -18z m-297 4 c0 -2 -8 -10 -17 -17 -16 -13 -17 -12 -4 4 13 16 21
21 21 13z m166 -8 c4 -7 4 -10 -1 -6 -4 4 -15 2 -24 -5 -14 -11 -14 -10 -2 6
16 20 18 21 27 5z m-59 -33 c0 -8 -4 -15 -9 -15 -10 0 -11 14 -1 23 9 10 10 9
10 -8z m104 -22 c13 -16 12 -17 -3 -4 -17 13 -22 21 -14 21 2 0 10 -8 17 -17z
m79 13 c0 -2 -8 -10 -17 -17 -16 -13 -17 -12 -4 4 13 16 21 21 21 13z m-355
-36 c3 -6 -1 -7 -9 -4 -18 7 -21 14 -7 14 6 0 13 -4 16 -10z m270 -55 c1 -19
-1 -33 -3 -30 -3 3 -12 -1 -21 -7 -15 -12 -15 -11 0 7 9 11 15 32 14 48 -1 15
1 25 4 22 3 -4 6 -22 6 -40z m-160 15 c3 -5 1 -10 -4 -10 -6 0 -11 5 -11 10 0
6 2 10 4 10 3 0 8 -4 11 -10z m240 0 c3 -5 1 -10 -4 -10 -6 0 -11 5 -11 10 0
6 2 10 4 10 3 0 8 -4 11 -10z m-277 -25 c-3 -3 -9 2 -12 12 -6 14 -5 15 5 6 7
-7 10 -15 7 -18z m240 0 c-3 -3 -9 2 -12 12 -6 14 -5 15 5 6 7 -7 10 -15 7
-18z m-164 -1 c3 -8 2 -12 -4 -9 -6 3 -10 10 -10 16 0 14 7 11 14 -7z m-37 -7
c0 -8 -6 -14 -14 -14 -9 0 -10 4 -2 14 6 7 12 13 14 13 1 0 2 -6 2 -13z m104
-4 c13 -16 12 -17 -3 -4 -17 13 -22 21 -14 21 2 0 10 -8 17 -17z m132 2 c-3
-9 -8 -14 -10 -11 -3 3 -2 9 2 15 9 16 15 13 8 -4z m-313 -9 c0 -2 -8 -10 -17
-17 -16 -13 -17 -12 -4 4 13 16 21 21 21 13z m-84 -21 c-1 -8 -5 -17 -8 -21
-5 -4 -4 16 1 34 3 9 9 -1 7 -13z m44 11 c0 -3 -4 -8 -10 -11 -5 -3 -10 -1
-10 4 0 6 5 11 10 11 6 0 10 -2 10 -4z m200 -4 c0 -5 -7 -9 -15 -9 -8 0 -12 4
-9 9 3 4 9 8 15 8 5 0 9 -4 9 -8z m-99 -19 c13 -16 12 -17 -3 -4 -17 13 -22
21 -14 21 2 0 10 -8 17 -17z m43 -1 c3 -5 -1 -9 -9 -9 -8 0 -12 4 -9 9 3 4 7
8 9 8 2 0 6 -4 9 -8z m172 -4 c2 -3 -13 -5 -35 -4 -22 0 -37 4 -35 7 4 7 62 4
70 -3z m-240 -13 c-1 -8 -5 -17 -8 -21 -5 -4 -4 16 1 34 3 9 9 -1 7 -13z m-82
-3 c3 -5 -1 -9 -9 -9 -8 0 -12 4 -9 9 3 4 7 8 9 8 2 0 6 -4 9 -8z m37 -9 c13
-16 12 -17 -3 -4 -17 13 -22 21 -14 21 2 0 10 -8 17 -17z m130 4 c-6 -8 -7
-18 -3 -22 4 -5 1 -5 -6 -1 -10 6 -10 11 -1 22 6 8 14 14 16 14 3 0 0 -6 -6
-13z m35 -15 c-3 -3 0 -12 6 -21 10 -13 10 -14 -2 -4 -16 15 -23 46 -8 37 5
-3 7 -9 4 -12z m104 -1 c0 -6 -4 -12 -8 -15 -5 -3 -9 1 -9 9 0 8 4 15 9 15 4
0 8 -4 8 -9z m31 -8 c13 -16 12 -17 -3 -4 -10 7 -18 15 -18 17 0 8 8 3 21 -13z
m-380 -20 c13 -16 12 -17 -3 -4 -10 7 -18 15 -18 17 0 8 8 3 21 -13z m-17 -19
c3 -8 2 -12 -4 -9 -6 3 -10 10 -10 16 0 14 7 11 14 -7z m151 6 c3 -6 -1 -7 -9
-4 -18 7 -21 14 -7 14 6 0 13 -4 16 -10z m35 6 c0 -3 -4 -8 -10 -11 -5 -3 -10
-1 -10 4 0 6 5 11 10 11 6 0 10 -2 10 -4z m90 -20 c0 -2 -8 -10 -17 -17 -16
-13 -17 -12 -4 4 13 16 21 21 21 13z m-77 -21 c-3 -9 -8 -14 -10 -11 -3 3 -2
9 2 15 9 16 15 13 8 -4z m-176 -12 c0 -8 -4 -10 -12 -3 -7 5 -16 6 -20 2 -5
-4 -5 -2 -2 4 9 15 34 13 34 -3z m53 12 c0 -1 -10 -10 -22 -21 -14 -12 -18
-13 -10 -3 6 9 10 18 7 21 -3 2 2 5 10 5 8 0 15 -1 15 -2z m95 -5 c3 -6 -1 -7
-9 -4 -18 7 -21 14 -7 14 6 0 13 -4 16 -10z m-190 -19 c3 -5 2 -12 -3 -15 -5
-3 -9 1 -9 9 0 17 3 19 12 6z m405 3 c0 -8 -19 -13 -24 -6 -3 5 1 9 9 9 8 0
15 -2 15 -3z m-180 -8 c0 -2 -8 -10 -17 -17 -16 -13 -17 -12 -4 4 13 16 21 21
21 13z m-46 -17 c3 -3 -5 -5 -19 -5 -13 0 -22 3 -19 7 4 8 30 6 38 -2z m181 1
c3 -5 1 -10 -4 -10 -6 0 -11 5 -11 10 0 6 2 10 4 10 3 0 8 -4 11 -10z m-311
-22 c-3 -4 -9 -8 -15 -8 -5 0 -9 4 -9 8 0 5 7 9 15 9 8 0 12 -4 9 -9z m309
-13 c-3 -9 -8 -14 -10 -11 -3 3 -2 9 2 15 9 16 15 13 8 -4z m-338 -13 c-3 -3
-11 0 -18 7 -9 10 -8 11 6 5 10 -3 15 -9 12 -12z m100 -2 c10 -11 16 -20 13
-20 -3 0 -13 9 -23 20 -10 11 -16 20 -13 20 3 0 13 -9 23 -20z m36 -3 c-10 -9
-11 -8 -5 6 3 10 9 15 12 12 3 -3 0 -11 -7 -18z m104 13 c3 -5 1 -10 -4 -10
-6 0 -11 5 -11 10 0 6 2 10 4 10 3 0 8 -4 11 -10z m-220 -40 c3 -5 1 -10 -4
-10 -6 0 -11 5 -11 10 0 6 2 10 4 10 3 0 8 -4 11 -10z m210 0 c3 -6 -1 -7 -9
-4 -18 7 -21 14 -7 14 6 0 13 -4 16 -10z m35 6 c0 -3 -4 -8 -10 -11 -5 -3 -10
-1 -10 4 0 6 5 11 10 11 6 0 10 -2 10 -4z m-150 -20 c0 -2 -8 -10 -17 -17 -16
-13 -17 -12 -4 4 13 16 21 21 21 13z m-77 -21 c-3 -9 -8 -14 -10 -11 -3 3 -2
9 2 15 9 16 15 13 8 -4z m234 -3 c-10 -10 -14 -22 -10 -27 5 -4 2 -5 -5 -1
-11 6 -10 12 4 27 9 10 19 19 22 19 3 0 -2 -8 -11 -18z m-307 2 c0 -8 -19 -13
-24 -6 -3 5 1 9 9 9 8 0 15 -2 15 -3z m45 -4 c3 -6 -1 -7 -9 -4 -18 7 -21 14
-7 14 6 0 13 -4 16 -10z m306 -7 c12 -16 12 -17 -2 -6 -9 7 -20 9 -24 5 -5 -4
-5 -1 -1 6 9 16 11 15 27 -5z m-100 -20 c13 -16 12 -17 -3 -4 -10 7 -18 15
-18 17 0 8 8 3 21 -13z m-171 3 c0 -2 -8 -10 -17 -17 -16 -13 -17 -12 -4 4 13
16 21 21 21 13z m-46 -17 c3 -3 -5 -5 -19 -5 -13 0 -22 3 -19 7 4 8 30 6 38
-2z m181 1 c3 -5 1 -10 -4 -10 -6 0 -11 5 -11 10 0 6 2 10 4 10 3 0 8 -4 11
-10z m85 -4 c0 -2 -8 -10 -17 -17 -16 -13 -17 -12 -4 4 13 16 21 21 21 13z
m-40 -10 c0 -3 -4 -8 -10 -11 -5 -3 -10 -1 -10 4 0 6 5 11 10 11 6 0 10 -2 10
-4z m-262 -31 c-3 -3 -9 2 -12 12 -6 14 -5 15 5 6 7 -7 10 -15 7 -18z m217 5
c-1 -11 -4 -22 -7 -25 -4 -5 -4 34 1 43 4 8 7 -1 6 -18z m-78 -5 c0 -8 -4 -12
-9 -9 -5 3 -6 10 -3 15 9 13 12 11 12 -6z m43 1 c0 -2 -8 -10 -17 -17 -16 -13
-17 -12 -4 4 13 16 21 21 21 13z m-85 -15 c3 -5 2 -12 -3 -15 -5 -3 -9 1 -9 9
0 17 3 19 12 6z m-94 -18 c13 -16 12 -17 -3 -4 -17 13 -22 21 -14 21 2 0 10
-8 17 -17z m254 -2 c3 -5 2 -12 -3 -15 -5 -3 -9 1 -9 9 0 17 3 19 12 6z m-34
-18 c13 -16 12 -17 -3 -4 -10 7 -18 15 -18 17 0 8 8 3 21 -13z m-77 -5 c-3 -4
-9 -8 -15 -8 -5 0 -9 4 -9 8 0 5 7 9 15 9 8 0 12 -4 9 -9z m-178 -20 c3 -4 -1
-5 -10 -4 -8 1 -18 5 -22 8 -3 4 1 5 10 4 8 -1 18 -5 22 -8z m79 2 c-3 -5 -12
-10 -18 -10 -7 0 -6 4 3 10 19 12 23 12 15 0z m-55 -14 c0 -2 -8 -10 -17 -17
-16 -13 -17 -12 -4 4 13 16 21 21 21 13z m240 0 c0 -2 -8 -10 -17 -17 -16 -13
-17 -12 -4 4 13 16 21 21 21 13z m-211 -19 c8 -10 7 -14 -2 -14 -8 0 -14 6
-14 14 0 7 1 13 2 13 2 0 8 -6 14 -13z m240 0 c8 -10 7 -14 -2 -14 -8 0 -14 6
-14 14 0 7 1 13 2 13 2 0 8 -6 14 -13z m-199 -1 c0 -3 -4 -8 -10 -11 -5 -3
-10 -1 -10 4 0 6 5 11 10 11 6 0 10 -2 10 -4z m240 0 c0 -3 -4 -8 -10 -11 -5
-3 -10 -1 -10 4 0 6 5 11 10 11 6 0 10 -2 10 -4z m-361 -50 c-3 -3 -11 5 -18
17 -13 21 -12 21 5 5 10 -10 16 -20 13 -22z m36 25 c3 -5 2 -12 -3 -15 -5 -3
-9 1 -9 9 0 17 3 19 12 6z m196 -8 c13 -16 12 -17 -3 -4 -10 7 -18 15 -18 17
0 8 8 3 21 -13z m42 -8 c-7 -21 -12 -19 -10 4 0 11 5 18 9 15 4 -3 5 -11 1
-19z m-137 0 c-1 -8 -5 -17 -8 -21 -5 -4 -4 16 1 34 3 9 9 -1 7 -13z m59 -24
c0 -22 -3 -42 -6 -45 -4 -4 -5 73 0 82 4 8 6 -3 6 -37z m185 35 c0 -2 -8 -10
-17 -17 -16 -13 -17 -12 -4 4 13 16 21 21 21 13z m-280 -14 c0 -5 -7 -9 -15
-9 -8 0 -12 4 -9 9 3 4 9 8 15 8 5 0 9 -4 9 -8z m240 4 c0 -3 -4 -8 -10 -11
-5 -3 -10 -1 -10 4 0 6 5 11 10 11 6 0 10 -2 10 -4z m-296 -24 c3 -5 -1 -9 -9
-9 -8 0 -15 4 -15 9 0 4 4 8 9 8 6 0 12 -4 15 -8z m251 -23 c3 -3 -7 -5 -22
-4 -16 1 -37 -5 -48 -14 -18 -15 -19 -15 -7 0 6 9 10 18 7 21 -3 2 11 4 30 3
18 0 36 -3 40 -6z m-226 -23 c9 -11 9 -16 -1 -22 -7 -4 -10 -4 -6 1 4 4 3 14
-3 22 -6 7 -9 13 -6 13 2 0 10 -6 16 -14z m-96 -11 c-3 -9 -8 -14 -10 -11 -3
3 -2 9 2 15 9 16 15 13 8 -4z m268 -22 c13 -16 12 -17 -3 -4 -10 7 -18 15 -18
17 0 8 8 3 21 -13z m-151 4 c0 -2 -9 -12 -19 -21 -14 -13 -21 -14 -27 -5 -4 7
-3 10 3 6 6 -4 16 0 23 8 12 14 20 19 20 12z m-110 -11 c0 -2 -8 -10 -17 -17
-16 -13 -17 -12 -4 4 13 16 21 21 21 13z m50 -10 c0 -2 -8 -10 -17 -17 -16
-13 -17 -12 -4 4 13 16 21 21 21 13z m90 -6 c0 -5 -5 -10 -11 -10 -5 0 -7 5
-4 10 3 6 8 10 11 10 2 0 4 -4 4 -10z m100 1 c0 -6 -4 -12 -8 -15 -5 -3 -9 1
-9 9 0 8 4 15 9 15 4 0 8 -4 8 -9z m-102 -46 c-3 -3 -9 2 -12 12 -6 14 -5 15
5 6 7 -7 10 -15 7 -18z m62 21 c0 -2 -8 -10 -17 -17 -16 -13 -17 -12 -4 4 13
16 21 21 21 13z m-127 -26 c10 -12 9 -12 -4 -2 -9 6 -18 9 -21 6 -3 -3 -9 -1
-12 4 -9 15 22 8 37 -8z m184 0 c-2 -11 -6 -22 -9 -26 -4 -3 -5 2 -3 13 2 10
4 21 4 26 1 4 3 7 6 7 3 0 4 -9 2 -20z m93 14 c0 -8 -19 -13 -24 -6 -3 5 1 9
9 9 8 0 15 -2 15 -3z m-46 -22 c3 -5 -1 -9 -9 -9 -8 0 -15 4 -15 9 0 4 4 8 9
8 6 0 12 -4 15 -8z m-230 -23 c3 -2 -10 -5 -29 -5 -18 0 -32 3 -30 7 5 7 52 6
59 -2z m121 2 c-9 -8 -36 -10 -30 -2 2 4 11 8 20 8 8 0 13 -3 10 -6z m36 -8
c13 -16 12 -17 -3 -4 -17 13 -22 21 -14 21 2 0 10 -8 17 -17z m79 -7 c0 -2 -8
-10 -17 -17 -16 -13 -17 -12 -4 4 13 16 21 21 21 13z m-339 -39 c-10 -9 -11
-8 -5 6 3 10 9 15 12 12 3 -3 0 -11 -7 -18z m66 8 c0 -8 -4 -12 -9 -9 -4 3 -8
9 -8 15 0 5 4 9 8 9 5 0 9 -7 9 -15z m133 11 c0 -2 -8 -10 -17 -17 -16 -13
-17 -12 -4 4 13 16 21 21 21 13z m60 -1 c0 -2 -6 -8 -13 -14 -10 -8 -14 -7
-14 2 0 8 6 14 14 14 7 0 13 -1 13 -2z m24 -31 c3 -8 2 -12 -4 -9 -6 3 -10 10
-10 16 0 14 7 11 14 -7z m-137 -9 c0 -8 -4 -15 -9 -15 -10 0 -11 14 -1 23 9
10 10 9 10 -8z m-137 -5 c0 -5 -2 -10 -4 -10 -3 0 -8 5 -11 10 -3 6 -1 10 4
10 6 0 11 -4 11 -10z m193 -8 c15 -16 15 -19 2 -19 -8 0 -13 3 -10 5 3 3 0 11
-6 19 -17 20 -5 16 14 -5z m47 8 c0 -5 -2 -10 -4 -10 -3 0 -8 5 -11 10 -3 6
-1 10 4 10 6 0 11 -4 11 -10z m-281 -13 c8 -10 7 -14 -2 -14 -8 0 -14 6 -14
14 0 7 1 13 2 13 2 0 8 -6 14 -13z m1 -51 c-7 -7 -13 -7 -20 0 -6 6 -3 10 10
10 13 0 16 -4 10 -10z m35 -20 c0 -19 -3 -37 -6 -40 -4 -5 -4 62 0 72 4 10 7
-4 6 -32z m95 30 c0 -2 -8 -10 -17 -17 -16 -13 -17 -12 -4 4 13 16 21 21 21
13z m35 -6 c-3 -5 -12 -10 -18 -10 -7 0 -6 4 3 10 19 12 23 12 15 0z m35 -20
c0 -5 -5 -10 -11 -10 -5 0 -7 5 -4 10 3 6 8 10 11 10 2 0 4 -4 4 -10z m-42
-25 c-3 -3 -9 2 -12 12 -6 14 -5 15 5 6 7 -7 10 -15 7 -18z m160 0 c-3 -3 -9
2 -12 12 -6 14 -5 15 5 6 7 -7 10 -15 7 -18z m-244 -1 c3 -8 2 -12 -4 -9 -6 3
-10 10 -10 16 0 14 7 11 14 -7z m42 -9 c1 -8 -1 -17 -5 -19 -4 -3 -7 6 -7 19
0 25 8 25 12 0z m118 9 c3 -8 2 -12 -4 -9 -6 3 -10 10 -10 16 0 14 7 11 14 -7z
m-36 -19 c-3 -3 -9 2 -12 12 -6 14 -5 15 5 6 7 -7 10 -15 7 -18z m82 1 c0 -2
-8 -10 -17 -17 -16 -13 -17 -12 -4 4 13 16 21 21 21 13z m-196 -14 c2 -4 -4
-8 -14 -8 -10 0 -16 4 -14 8 3 4 9 8 14 8 5 0 11 -4 14 -8z m71 -43 c-3 -12
-7 -24 -10 -27 -3 -3 -3 5 -1 19 6 30 5 29 10 29 3 0 3 -10 1 -21z m-35 -1 c0
-4 -4 -8 -9 -8 -6 0 -12 4 -15 8 -3 5 1 9 9 9 8 0 15 -4 15 -9z m116 -12 c1
-7 -4 -13 -12 -13 -9 0 -11 4 -4 12 5 7 8 15 5 18 -3 4 -2 5 2 2 4 -3 8 -11 9
-19z m35 7 c13 -16 12 -17 -3 -4 -17 13 -22 21 -14 21 2 0 10 -8 17 -17z
m-197 -11 c3 -5 -1 -9 -9 -9 -8 0 -12 4 -9 9 3 4 7 8 9 8 2 0 6 -4 9 -8z m106
-26 c0 -2 -8 -10 -17 -17 -16 -13 -17 -12 -4 4 13 16 21 21 21 13z m41 -13
c13 -16 12 -17 -3 -4 -10 7 -18 15 -18 17 0 8 8 3 21 -13z m-261 -3 c0 -5 -2
-10 -4 -10 -3 0 -8 5 -11 10 -3 6 -1 10 4 10 6 0 11 -4 11 -10z m191 -27 c13
-16 12 -17 -3 -4 -17 13 -22 21 -14 21 2 0 10 -8 17 -17z m79 -9 c0 -8 -19
-13 -24 -6 -3 5 1 9 9 9 8 0 15 -2 15 -3z m-190 -8 c0 -2 -8 -10 -17 -17 -16
-13 -17 -12 -4 4 13 16 21 21 21 13z m35 -5 c3 -5 2 -12 -3 -15 -5 -3 -9 1 -9
9 0 17 3 19 12 6z m86 -14 c-6 -8 -9 -16 -6 -19 3 -2 -11 -4 -30 -3 -18 0 -37
3 -40 7 -3 3 8 4 24 3 17 -1 36 4 42 11 6 8 14 14 16 14 3 0 0 -6 -6 -13z m34
-14 c-1 -16 5 -37 14 -48 16 -20 16 -20 -5 -2 -17 14 -24 51 -15 75 4 10 8 -3
6 -25z m-166 -27 c9 -11 9 -16 -1 -22 -7 -4 -10 -4 -6 1 4 4 3 14 -3 22 -6 7
-9 13 -6 13 2 0 10 -6 16 -14z m84 -10 c3 3 4 -1 3 -10 -1 -8 -5 -18 -9 -21
-4 -3 -5 -2 -2 2 3 3 -3 16 -12 27 -14 15 -14 18 -2 8 9 -6 18 -9 22 -6z m140
-1 c-3 -9 -8 -14 -10 -11 -3 3 -2 9 2 15 9 16 15 13 8 -4z m-173 -23 c0 -5 -7
-9 -15 -9 -8 0 -12 4 -9 9 3 4 9 8 15 8 5 0 9 -4 9 -8z m-120 -16 c0 -3 -4 -8
-10 -11 -5 -3 -10 -1 -10 4 0 6 5 11 10 11 6 0 10 -2 10 -4z m210 -1 c0 -2 -6
-8 -13 -14 -10 -8 -14 -7 -14 2 0 8 6 14 14 14 7 0 13 -1 13 -2z m25 -5 c3 -5
1 -10 -4 -10 -6 0 -11 5 -11 10 0 6 2 10 4 10 3 0 8 -4 11 -10z m-74 -17 c13
-16 12 -17 -3 -4 -17 13 -22 21 -14 21 2 0 10 -8 17 -17z m-154 -21 c-10 -10
-14 -22 -10 -27 5 -4 2 -5 -5 -1 -11 6 -10 12 4 27 9 10 19 19 22 19 3 0 -2
-8 -11 -18z m44 -9 c12 -16 12 -17 -2 -6 -9 7 -20 9 -24 5 -5 -4 -5 -1 -1 6 9
16 11 15 27 -5z m93 8 c-8 -8 -34 -10 -38 -2 -3 4 6 7 19 7 14 0 22 -2 19 -5z
m81 -1 c3 -6 -1 -7 -9 -4 -18 7 -21 14 -7 14 6 0 13 -4 16 -10z m-309 -25 c-1
-8 -5 -17 -8 -21 -5 -4 -4 16 1 34 3 9 9 -1 7 -13z m38 -1 c3 -8 2 -12 -4 -9
-6 3 -10 10 -10 16 0 14 7 11 14 -7z m146 -15 c0 -5 -4 -9 -8 -9 -5 0 -9 7 -9
15 0 8 4 12 9 9 4 -3 8 -9 8 -15z m31 -6 c13 -16 12 -17 -3 -4 -17 13 -22 21
-14 21 2 0 10 -8 17 -17z m59 13 c0 -2 -8 -10 -17 -17 -16 -13 -17 -12 -4 4
13 16 21 21 21 13z m-190 -10 c0 -2 -8 -10 -17 -17 -16 -13 -17 -12 -4 4 13
16 21 21 21 13z m-40 -10 c0 -2 -7 -7 -16 -10 -8 -3 -12 -2 -9 4 6 10 25 14
25 6z m176 -28 c3 -4 -1 -5 -10 -4 -8 1 -18 5 -22 8 -3 4 1 5 10 4 8 -1 18 -5
22 -8z m79 -6 c-3 -3 -11 0 -18 7 -9 10 -8 11 6 5 10 -3 15 -9 12 -12z m-140
-32 c3 -5 1 -10 -4 -10 -6 0 -11 5 -11 10 0 6 2 10 4 10 3 0 8 -4 11 -10z
m130 0 c3 -6 -1 -7 -9 -4 -18 7 -21 14 -7 14 6 0 13 -4 16 -10z m35 6 c0 -3
-4 -8 -10 -11 -5 -3 -10 -1 -10 4 0 6 5 11 10 11 6 0 10 -2 10 -4z m-202 -31
c-3 -3 -9 2 -12 12 -6 14 -5 15 5 6 7 -7 10 -15 7 -18z m39 -8 c0 -8 -6 -14
-14 -14 -9 0 -10 4 -2 14 6 7 12 13 14 13 1 0 2 -6 2 -13z m176 -2 c-3 -9 -8
-14 -10 -11 -3 3 -2 9 2 15 9 16 15 13 8 -4z m-338 -15 c10 -11 16 -20 13 -20
-3 0 -13 9 -23 20 -10 11 -16 20 -13 20 3 0 13 -9 23 -20z m230 11 c-9 -8 -36
-10 -30 -2 2 4 11 8 20 8 8 0 13 -3 10 -6z m80 -1 c3 -6 -1 -7 -9 -4 -18 7
-21 14 -7 14 6 0 13 -4 16 -10z m-225 -4 c0 -2 -8 -10 -17 -17 -16 -13 -17
-12 -4 4 13 16 21 21 21 13z"/>
<path d="M5690 1733 c0 -7 0 -16 1 -19 0 -4 -5 -11 -13 -15 -10 -7 -10 -9 0
-9 6 0 12 -5 12 -11 0 -5 -5 -7 -12 -3 -6 4 -8 3 -4 -4 3 -6 1 -14 -5 -17 -5
-4 -8 -13 -5 -21 3 -7 1 -16 -5 -20 -6 -3 -8 -12 -5 -20 3 -7 1 -16 -5 -20 -6
-3 -8 -12 -5 -19 2 -7 -1 -18 -7 -24 -6 -6 -7 -14 -4 -18 4 -4 15 1 25 12 12
13 13 15 2 9 -13 -7 -13 -5 -2 9 8 9 10 22 6 28 -4 7 -3 9 3 6 12 -8 37 18 30
30 -3 5 1 17 9 28 9 12 14 14 14 5 0 -7 3 -10 6 -7 4 4 1 14 -7 24 -8 9 -9 14
-3 10 6 -3 11 0 11 8 0 18 -14 20 -20 3 -3 -7 -4 -3 -4 9 1 12 6 19 12 15 5
-3 4 1 -3 10 -9 11 -10 18 -2 23 5 3 11 4 11 1 1 -3 3 -10 4 -16 1 -5 3 -15 4
-21 0 -5 5 -8 11 -4 16 10 -10 54 -31 52 -11 -1 -19 -7 -19 -14z m9 -84 c-8
-5 -10 -9 -4 -9 5 0 4 -5 -2 -11 -6 -6 -9 -18 -6 -25 3 -8 -1 -14 -11 -14 -18
0 -22 15 -6 25 6 4 8 11 5 16 -8 11 17 39 29 32 4 -3 2 -9 -5 -14z"/>
<path d="M5746 1742 c-7 -12 12 -38 21 -29 4 5 1 12 -7 17 -9 6 -10 10 -3 10
24 0 25 -23 2 -41 -15 -11 -24 -28 -24 -46 0 -18 -5 -28 -15 -28 -8 -1 -14 -7
-12 -14 1 -7 -7 -24 -18 -38 -15 -20 -17 -28 -8 -34 7 -4 17 -5 22 -2 6 4 5 8
-2 11 -7 2 -12 8 -12 14 0 6 6 6 15 -2 8 -7 12 -17 8 -23 -3 -5 -2 -7 4 -4 5
3 10 0 10 -8 0 -8 -4 -15 -9 -15 -5 0 -6 -5 -3 -11 5 -6 12 -4 22 8 8 10 11
12 7 4 -5 -9 -3 -12 5 -7 6 4 9 12 6 17 -4 5 -1 9 5 9 7 0 10 -7 6 -17 -5 -16
-4 -16 7 -3 15 18 37 24 37 10 0 -5 -7 -10 -16 -10 -8 0 -13 -4 -10 -9 13 -20
41 -4 40 22 -1 16 3 24 9 20 6 -4 7 -1 3 6 -5 7 0 22 11 34 l18 22 -23 -19
c-12 -11 -25 -16 -29 -13 -3 4 -13 1 -22 -6 -14 -11 -15 -10 -1 8 14 19 14 19
-2 6 -10 -7 -16 -16 -13 -20 6 -10 -27 -7 -44 4 -10 6 -12 4 -6 -6 5 -8 4 -10
0 -6 -12 11 -15 37 -4 37 5 0 9 -5 9 -11 0 -5 4 -8 10 -4 5 3 7 12 4 20 -4 8
-10 13 -14 10 -5 -3 -11 -1 -15 4 -3 6 3 8 15 6 23 -4 51 29 43 54 -4 14 -3
14 9 1 16 -18 43 -25 32 -9 -5 8 -3 9 5 4 10 -6 11 -3 1 15 -10 18 -10 21 2
14 10 -6 9 -3 -2 12 -22 30 -24 30 -16 9 4 -11 4 -16 0 -12 -4 4 -14 1 -22 -6
-12 -9 -12 -6 1 14 11 16 25 25 40 24 12 -1 20 -6 17 -11 -3 -5 -9 -8 -15 -6
-5 2 -4 -2 3 -9 15 -16 35 1 27 23 -7 17 -65 22 -65 5 0 -8 -3 -8 -12 1 -14
14 -25 15 -32 4z m61 -68 c-9 -9 -28 6 -21 18 4 6 10 6 17 -1 6 -6 8 -13 4
-17z m-45 9 c-9 -3 -10 -9 -3 -17 8 -9 7 -18 -2 -30 -11 -15 -13 -13 -11 16 2
40 1 38 17 37 9 0 9 -2 -1 -6z m54 -137 c1 -9 -8 -13 -30 -11 -17 2 -36 -1
-42 -6 -7 -5 -11 -4 -11 5 0 9 9 13 24 11 12 -1 28 4 34 12 13 14 22 11 25
-11z"/>
<path d="M5865 1742 c-2 -2 -1 -10 1 -17 3 -7 -4 -20 -16 -28 -12 -9 -19 -20
-16 -26 4 -5 2 -12 -4 -16 -6 -4 -8 -11 -5 -16 4 -5 1 -9 -4 -9 -6 0 -11 6
-11 13 0 8 -4 7 -10 -3 -8 -12 -10 -12 -10 -1 0 7 -10 1 -22 -14 -16 -21 -19
-30 -10 -33 9 -3 8 -8 -5 -19 -17 -13 -16 -13 4 -3 12 5 25 15 28 20 4 7 12 7
23 1 12 -7 22 -5 35 6 23 22 35 8 13 -15 -9 -11 -14 -26 -10 -36 4 -9 1 -16
-6 -16 -7 0 -10 -7 -7 -15 4 -8 2 -17 -4 -20 -5 -4 -7 -11 -4 -16 4 -5 2 -9
-4 -9 -5 0 -12 6 -15 13 -2 6 -3 1 -1 -13 2 -14 4 -29 4 -33 1 -5 6 -5 11 -2
6 4 8 10 5 15 -3 5 -1 11 5 15 6 4 7 11 4 17 -5 7 -2 8 6 3 9 -6 11 -4 5 5 -6
9 -4 11 6 5 11 -7 11 -5 -1 11 -14 17 -14 18 2 6 12 -10 18 -10 24 -1 4 7 3 9
-4 5 -6 -3 -9 1 -8 10 1 8 9 20 17 25 12 7 12 9 -1 9 -13 0 -13 1 0 10 13 9
13 10 0 10 -9 0 -11 3 -5 8 14 10 17 32 5 33 -5 1 -14 2 -19 3 -5 0 -13 5 -18
10 -5 5 -2 6 6 1 10 -6 12 -4 6 5 -6 9 -4 11 6 5 8 -5 5 2 -6 16 -17 20 -17
22 -1 9 10 -8 25 -15 33 -16 9 -2 21 -8 27 -15 8 -9 7 -10 -4 -4 -13 8 -13 7
0 -10 12 -15 12 -17 1 -10 -10 5 -12 4 -7 -4 4 -6 12 -9 17 -6 5 4 9 1 9 -4 0
-6 -5 -11 -11 -11 -5 0 -8 -4 -4 -9 3 -5 1 -12 -5 -16 -6 -4 -7 -11 -4 -17 5
-7 2 -8 -7 -3 -11 7 -11 5 1 -10 8 -10 10 -16 3 -12 -8 5 -11 1 -10 -12 0 -11
4 -18 8 -16 3 3 5 -7 3 -20 -1 -17 2 -23 9 -18 8 5 8 2 0 -9 -7 -8 -11 -17 -8
-19 2 -3 -6 -5 -18 -6 -12 0 -16 1 -9 4 6 3 9 9 6 15 -3 5 -13 0 -21 -11 -8
-12 -18 -19 -22 -17 -3 3 -7 -4 -7 -14 0 -10 4 -17 7 -14 4 2 14 -5 22 -17 8
-11 18 -16 21 -11 3 6 0 12 -6 15 -7 3 -3 4 9 4 12 -1 19 -6 15 -12 -3 -5 1
-4 10 2 8 7 19 9 23 5 5 -4 4 0 -1 8 -13 21 -13 70 0 63 6 -4 5 0 -1 9 -11 13
-8 15 22 13 22 -2 32 1 28 8 -3 6 -1 7 6 3 6 -4 9 -12 6 -17 -4 -5 -2 -9 3 -9
6 0 13 7 16 16 4 10 2 13 -6 8 -7 -4 -8 -3 -4 5 4 6 12 9 17 5 5 -3 7 -10 4
-15 -3 -5 1 -6 9 -3 16 6 27 27 32 59 1 11 5 32 8 47 2 15 0 31 -6 34 -7 5 -8
2 -3 -6 6 -9 4 -11 -5 -5 -9 5 -11 4 -6 -3 4 -7 2 -10 -7 -6 -8 3 -20 -3 -28
-13 -13 -16 -12 -17 4 -4 9 8 20 12 23 9 9 -10 13 -49 4 -43 -6 3 -7 -1 -4 -9
3 -9 1 -16 -6 -16 -6 0 -9 4 -6 8 3 5 -1 9 -9 9 -8 0 -15 -4 -15 -8 0 -4 -9
-6 -20 -4 -13 3 -18 0 -14 -7 4 -7 2 -8 -5 -4 -6 4 -9 12 -6 17 4 5 1 9 -4 9
-6 0 -11 -5 -11 -12 0 -6 -3 -8 -6 -5 -4 4 -1 14 7 24 9 11 10 14 2 9 -9 -5
-11 -2 -7 8 7 19 -7 21 -25 4 -11 -11 -11 -9 0 9 7 12 17 19 22 16 5 -3 5 3 0
13 -6 11 -9 31 -8 46 2 24 0 26 -14 15 -14 -11 -14 -10 -2 5 7 10 17 15 22 12
5 -3 9 -1 9 4 0 5 7 9 15 9 8 0 11 -5 8 -11 -4 -6 1 -5 10 3 10 8 20 11 24 7
3 -3 0 -6 -7 -6 -9 0 -8 -4 5 -13 10 -8 29 -13 42 -11 14 1 21 -2 17 -8 -4 -6
-3 -8 3 -5 5 3 10 0 10 -7 0 -8 -6 -12 -12 -10 -7 3 -18 -2 -25 -11 -8 -9 -8
-15 -2 -15 6 0 13 4 17 10 3 5 13 6 22 3 12 -5 15 -2 10 10 -3 9 -2 19 2 21 8
5 21 49 25 88 2 14 0 15 -12 6 -11 -9 -11 -13 -2 -16 8 -3 4 -10 -11 -18 -13
-7 -19 -13 -12 -14 6 0 11 -9 10 -20 -2 -30 -20 -6 -23 30 -1 16 2 32 7 35 5
4 6 -1 3 -9 -3 -9 -2 -16 3 -16 5 0 9 8 10 18 1 16 -7 18 -75 17 -42 0 -83 -4
-89 -8 -7 -5 -13 -4 -13 2 0 9 -36 11 -45 3z m41 -15 c4 -3 12 -3 18 1 6 3 38
7 71 7 l60 1 0 -36 c0 -30 -3 -36 -20 -35 -11 1 -20 8 -20 16 0 20 -62 19 -89
-2 -24 -19 -49 -20 -67 -2 -8 8 -6 15 9 24 15 9 18 17 11 25 -7 9 -6 12 5 10
9 -1 18 -5 22 -9z m-81 -107 c4 6 11 8 16 4 6 -4 6 -11 -2 -20 -9 -11 -15 -11
-25 -3 -10 8 -18 9 -27 0 -18 -14 -30 -2 -16 15 8 10 16 11 29 4 13 -7 21 -7
25 0z m38 -55 c-3 -9 -8 -14 -10 -11 -3 3 -2 9 2 15 9 16 15 13 8 -4z m73 -27
c-1 -13 4 -25 9 -26 6 -2 15 -8 21 -13 6 -5 14 -6 18 -2 12 12 46 13 46 2 0
-8 6 -7 18 2 15 13 16 12 3 -4 -10 -13 -17 -14 -26 -7 -9 8 -15 8 -20 0 -3 -6
-10 -8 -15 -5 -5 3 -11 1 -15 -5 -10 -16 -28 -12 -22 4 4 10 1 13 -8 9 -8 -3
-13 -8 -10 -12 2 -4 -2 -8 -10 -8 -8 0 -15 4 -15 9 0 4 5 8 10 8 6 0 10 5 10
11 0 5 -5 7 -10 4 -11 -7 -9 23 3 43 12 17 14 15 13 -10z m-20 -138 c0 -11 -9
-16 -28 -15 -50 2 -51 30 -1 30 20 1 29 -4 29 -15z"/>
<path d="M5892 1722 c2 -6 -6 -17 -16 -25 -15 -11 -16 -16 -6 -22 9 -5 11 -4
6 3 -4 7 -3 12 3 12 5 0 12 -6 15 -12 3 -9 10 -7 23 7 28 31 126 24 107 -7 -4
-7 -2 -8 5 -4 6 4 9 11 6 16 -3 4 1 11 7 13 10 4 10 6 0 6 -7 1 -11 5 -8 10 8
12 -37 8 -46 -4 -5 -6 -8 -4 -8 5 0 13 -1 13 -10 0 -9 -13 -10 -13 -10 0 0 13
-1 13 -10 0 -9 -13 -10 -13 -10 0 0 13 -2 13 -9 1 -8 -12 -12 -13 -26 -1 -9 8
-15 9 -13 2z m22 -33 c-3 -5 -10 -7 -15 -3 -5 3 -7 10 -3 15 3 5 10 7 15 3 5
-3 7 -10 3 -15z"/>
<path d="M6654 1725 c0 -13 3 -22 7 -19 8 4 6 30 -2 38 -3 3 -5 -5 -5 -19z"/>
<path d="M6812 1740 c2 -9 -3 -14 -12 -12 -8 2 -12 0 -8 -4 4 -4 2 -14 -4 -23
-10 -12 -7 -12 8 2 11 9 23 14 27 11 3 -3 4 1 3 10 -1 8 -6 19 -10 23 -4 4 -6
1 -4 -7z"/>
<path d="M6906 1742 c-3 -5 1 -9 9 -9 8 0 12 4 9 9 -3 4 -7 8 -9 8 -2 0 -6 -4
-9 -8z"/>
<path d="M6946 1742 c-3 -5 1 -9 9 -9 8 0 12 4 9 9 -3 4 -7 8 -9 8 -2 0 -6 -4
-9 -8z"/>
<path d="M6755 1730 c-4 -6 -10 -8 -14 -6 -4 3 -8 -1 -8 -9 0 -10 4 -12 12 -5
7 5 14 8 17 5 2 -3 5 2 5 10 0 18 -3 19 -12 5z"/>
<path d="M6875 1730 c-4 -6 -10 -8 -14 -6 -4 3 -8 -1 -8 -9 0 -13 4 -12 19 2
18 16 22 23 14 23 -3 0 -8 -5 -11 -10z"/>
<path d="M6560 1725 c0 -2 6 -8 13 -14 10 -8 14 -7 14 2 0 8 -6 14 -14 14 -7
0 -13 -1 -13 -2z"/>
<path d="M6680 1695 c-7 -8 -16 -13 -20 -10 -5 3 -11 2 -14 -3 -10 -17 24 -8
41 10 9 10 14 18 11 18 -3 0 -11 -7 -18 -15z"/>
<path d="M6584 1678 l-19 -23 23 19 c21 18 27 26 19 26 -2 0 -12 -10 -23 -22z"/>
<path d="M6806 1685 c-11 -8 -15 -15 -9 -15 6 0 16 7 23 15 16 19 11 19 -14 0z"/>
<path d="M6902 1684 c10 -10 20 -16 22 -13 3 3 -5 11 -17 18 -21 13 -21 12 -5
-5z"/>
<path d="M6837 1672 c-15 -16 -15 -19 -2 -19 8 0 13 3 10 5 -3 3 0 11 6 19 17
20 5 16 -14 -5z"/>
<path d="M6951 1667 c-8 -10 -7 -14 2 -14 8 0 14 6 14 14 0 7 -1 13 -2 13 -2
0 -8 -6 -14 -13z"/>
<path d="M5947 1662 c-8 -16 5 -89 23 -121 9 -17 15 -19 30 -11 11 6 20 8 20
4 0 -3 7 -1 15 6 8 7 12 17 9 22 -4 6 -10 6 -16 0 -6 -6 -17 -8 -25 -5 -11 4
-9 9 7 20 11 8 18 18 15 23 -3 4 2 13 10 20 19 16 19 34 0 27 -8 -4 -17 -2
-20 4 -7 11 -25 2 -25 -13 0 -5 8 -7 18 -4 16 6 16 5 -1 -8 -10 -8 -14 -16
-10 -18 4 -3 2 -3 -5 -1 -7 1 -10 -2 -6 -8 3 -6 -2 -5 -13 2 -11 6 -20 18 -20
27 0 11 3 11 14 -4 7 -10 13 -16 14 -13 7 49 6 55 -12 56 -10 1 -20 -1 -22 -5z
m93 -26 c0 -2 -8 -10 -17 -17 -16 -13 -17 -12 -4 4 13 16 21 21 21 13z m-36
-44 c18 9 17 7 -4 -14 -29 -28 -29 -28 -35 2 -3 18 -2 21 7 12 8 -8 17 -8 32
0z m6 -46 c0 -2 -7 -7 -16 -10 -8 -3 -12 -2 -9 4 6 10 25 14 25 6z"/>
<path d="M6866 1662 c-2 -4 4 -8 14 -8 10 0 16 4 14 8 -3 4 -9 8 -14 8 -5 0
-11 -4 -14 -8z"/>
<path d="M6654 1649 c-3 -6 -2 -15 3 -20 5 -5 9 -1 9 11 0 23 -2 24 -12 9z"/>
<path d="M6774 1646 c1 -8 5 -18 8 -22 4 -3 5 1 4 10 -1 8 -5 18 -8 22 -4 3
-5 -1 -4 -10z"/>
<path d="M5876 1641 c-3 -5 1 -11 9 -14 9 -4 12 -1 8 9 -6 16 -10 17 -17 5z"/>
<path d="M6714 1610 c3 -55 12 -59 12 -4 0 24 -3 44 -7 44 -4 0 -6 -18 -5 -40z"/>
<path d="M6754 1612 c11 -12 21 -20 24 -17 3 3 15 -3 26 -12 21 -18 21 -18 2
5 -11 12 -21 20 -24 17 -3 -3 -15 3 -26 12 -21 18 -21 18 -2 -5z"/>
<path d="M6585 1600 c10 -11 20 -20 23 -20 3 0 -3 9 -13 20 -10 11 -20 20 -23
20 -3 0 3 -9 13 -20z"/>
<path d="M6846 1605 c-11 -8 -15 -15 -9 -15 6 0 16 7 23 15 16 19 11 19 -14 0z"/>
<path d="M5894 1585 c0 -13 3 -22 7 -19 8 4 6 30 -2 38 -3 3 -5 -5 -5 -19z"/>
<path d="M6646 1598 c4 -5 9 -7 12 -4 3 3 15 -2 26 -11 21 -18 21 -18 3 3 -16
20 -52 30 -41 12z"/>
<path d="M6871 1587 c-13 -21 -12 -21 5 -5 10 10 16 20 13 22 -3 3 -11 -5 -18
-17z"/>
<path d="M6663 1564 c9 -11 15 -23 12 -26 -3 -3 5 -13 17 -24 23 -19 23 -19 5
2 -9 11 -15 23 -12 26 3 3 -5 13 -17 24 -23 19 -23 19 -5 -2z"/>
<path d="M6774 1560 c0 -13 4 -16 10 -10 7 7 7 13 0 20 -6 6 -10 3 -10 -10z"/>
<path d="M6889 1563 c-13 -16 -12 -17 4 -4 16 13 21 21 13 21 -2 0 -10 -8 -17
-17z"/>
<path d="M6600 1566 c0 -2 8 -10 18 -17 15 -13 16 -12 3 4 -13 16 -21 21 -21
13z"/>
<path d="M6936 1553 c-6 -14 -5 -15 5 -6 7 7 10 15 7 18 -3 3 -9 -2 -12 -12z"/>
<path d="M6829 1543 c-13 -16 -12 -17 4 -4 16 13 21 21 13 21 -2 0 -10 -8 -17
-17z"/>
<path d="M6516 1538 c3 -5 10 -6 15 -3 13 9 11 12 -6 12 -8 0 -12 -4 -9 -9z"/>
<path d="M6591 1533 c7 -12 15 -20 18 -17 3 2 -3 12 -13 22 -17 16 -18 16 -5
-5z"/>
<path d="M6704 1542 c4 -3 14 -7 22 -8 9 -1 13 0 10 4 -4 3 -14 7 -22 8 -9 1
-13 0 -10 -4z"/>
<path d="M6844 1518 c-12 -14 -13 -18 -3 -10 9 6 18 10 21 7 2 -3 5 2 5 10 0
19 0 19 -23 -7z"/>
<path d="M5649 1507 c-15 -12 -25 -30 -24 -39 2 -10 -1 -18 -5 -18 -5 0 -7 -9
-5 -20 2 -11 -1 -20 -7 -20 -5 0 -8 -7 -5 -15 4 -8 2 -17 -3 -20 -9 -6 -8 -24
3 -42 6 -9 3 -11 -9 -6 -13 5 -16 3 -11 -9 3 -9 3 -19 -1 -23 -4 -4 -8 -11 -8
-16 -1 -5 -3 -11 -4 -14 -1 -3 -3 -13 -4 -22 -1 -10 -5 -24 -10 -31 -11 -19 1
-27 18 -13 8 7 13 21 11 32 -3 12 0 17 7 13 7 -5 8 -2 3 7 -7 11 -5 11 11 -1
17 -14 18 -14 6 2 -10 12 -10 18 -1 24 7 4 9 3 6 -2 -3 -6 3 -10 13 -11 11 -1
22 2 25 8 3 5 -1 6 -9 3 -9 -3 -16 -1 -16 4 0 6 10 9 22 7 16 -4 19 -2 10 7
-14 14 -44 20 -36 7 9 -15 -13 -10 -26 6 -11 13 -10 14 4 9 14 -5 16 -2 12 20
-3 15 -1 24 4 21 10 -6 8 15 -5 35 -8 13 -6 13 8 2 9 -8 22 -10 28 -6 8 5 9 3
4 -7 -8 -12 -6 -12 8 0 16 12 22 8 18 -12 -1 -5 3 -6 9 -2 8 5 8 11 0 20 -7 8
-8 20 -4 27 4 7 4 10 -1 6 -4 -4 -15 -2 -24 4 -13 10 -14 10 -3 -2 6 -8 12
-19 12 -24 0 -6 -7 0 -16 12 -9 13 -21 19 -27 15 -7 -3 -4 3 6 14 13 15 15 22
6 25 -9 3 -8 6 3 10 10 4 23 -2 35 -15 18 -21 18 -21 -2 -7 -19 14 -19 14 -5
-4 12 -16 12 -18 1 -11 -9 5 -12 4 -7 -3 4 -6 13 -9 20 -6 17 6 40 -22 30 -37
-5 -8 -3 -9 6 -4 9 5 11 4 6 -4 -4 -6 -4 -10 1 -9 4 1 18 -3 30 -10 14 -8 24
-9 28 -2 10 16 26 12 23 -6 -2 -10 2 -19 9 -21 8 -3 11 3 8 18 -4 21 -4 21 15
4 11 -10 19 -20 18 -24 -2 -20 4 -22 17 -5 15 19 15 19 9 -1 -4 -14 -3 -16 4
-7 7 11 10 11 15 -3 5 -10 3 -14 -5 -9 -7 5 -8 3 -3 -6 5 -9 4 -11 -3 -6 -8 5
-10 2 -6 -8 3 -9 10 -14 14 -11 4 2 16 -5 26 -18 19 -22 19 -22 -1 -7 -17 12
-17 11 1 -6 13 -12 20 -24 17 -28 -3 -3 -13 3 -22 12 -9 10 -11 11 -6 3 8 -12
7 -13 -5 -7 -8 4 -7 1 3 -7 10 -9 14 -18 8 -21 -5 -3 -11 -3 -14 1 -2 5 -2 2
0 -5 2 -8 -2 -10 -10 -6 -6 4 -5 -1 4 -12 9 -10 14 -25 12 -31 -3 -7 0 -13 7
-13 6 0 9 4 5 9 -3 5 -1 12 3 15 5 3 8 -6 8 -20 -1 -14 -11 -31 -21 -36 -11
-6 -17 -7 -13 -3 4 5 3 14 -3 22 -9 9 -8 17 0 27 9 10 7 17 -6 27 -17 13 -17
13 -3 -6 14 -19 14 -19 -5 -5 -18 14 -19 14 -7 -2 9 -11 10 -18 2 -23 -5 -3
-10 -11 -10 -16 0 -6 4 -8 9 -4 5 3 13 0 17 -6 5 -8 3 -9 -7 -4 -8 5 -11 5 -7
0 4 -4 3 -15 -1 -24 -6 -11 -4 -23 5 -36 8 -10 14 -14 14 -9 0 6 -3 14 -7 20
-5 5 -1 3 7 -6 33 -34 52 -13 52 57 -1 19 5 34 15 37 8 4 13 12 10 20 -3 8 -3
17 1 21 3 3 7 16 9 28 3 32 8 50 16 65 5 7 4 12 -3 12 -5 0 -19 -14 -29 -31
-15 -24 -20 -27 -25 -14 -4 11 -2 14 7 9 7 -5 7 -1 -2 10 -10 12 -11 20 -3 28
6 6 8 17 5 24 -7 19 7 18 29 -3 22 -20 36 -7 33 30 -1 12 3 25 8 29 6 3 10 22
10 42 0 19 4 33 9 30 4 -3 8 0 8 5 0 14 -6 14 -31 1 -11 -6 -25 -8 -32 -3 -14
9 -46 12 -45 4 0 -3 -1 -8 -2 -11 -8 -20 -7 -46 1 -56 7 -8 6 -14 -1 -19 -5
-3 -10 -3 -10 1 0 3 -7 1 -15 -6 -8 -7 -15 -9 -15 -5 0 4 -6 3 -13 -3 -13 -11
-39 -1 -38 14 1 5 -4 9 -11 9 -7 0 -12 11 -12 25 0 14 5 25 12 25 7 0 12 4 11
9 -1 15 25 25 38 15 9 -8 11 -5 7 13 -3 12 -6 29 -6 36 -1 7 -13 1 -30 -14
-15 -15 -26 -30 -23 -32 3 -3 0 -11 -6 -18 -14 -17 -38 -7 -34 15 2 10 -1 24
-5 31 -11 19 -40 21 -40 4 0 -8 5 -14 10 -14 6 0 10 5 10 12 0 6 3 8 7 4 5 -4
-1 -14 -11 -22 -14 -10 -16 -14 -5 -14 12 0 12 -2 -1 -9 -8 -6 -18 -7 -24 -4
-5 4 -6 1 -1 -7 5 -9 4 -11 -4 -6 -6 4 -9 12 -6 17 4 5 1 9 -4 9 -14 0 -14
-13 1 -28 7 -7 9 -12 6 -12 -4 0 -16 13 -27 29 l-20 28 26 -1 c15 -1 28 5 31
14 3 8 1 12 -3 8 -13 -12 -34 12 -28 30 4 13 2 12 -11 -3 -13 -16 -15 -17 -10
-2 8 23 -5 21 -37 -6z m29 1 c-2 -7 2 -12 9 -13 7 0 17 -5 23 -11 8 -8 4 -11
-14 -10 -14 1 -28 5 -31 8 -4 4 -14 4 -23 1 -10 -4 -6 3 8 15 30 25 31 26 28
10z m206 -34 c3 -8 2 -12 -4 -9 -6 3 -10 10 -10 16 0 14 7 11 14 -7z m-99 -24
c-2 -12 4 -24 15 -30 10 -6 18 -19 17 -29 0 -11 -5 -17 -10 -14 -4 2 -14 0
-21 -6 -10 -9 -19 -6 -37 9 l-24 20 25 21 c14 12 26 25 26 30 2 16 4 19 8 19
3 0 3 -9 1 -20z m225 -18 c7 2 14 -5 15 -16 3 -14 1 -16 -8 -7 -6 6 -15 11
-20 11 -5 0 -1 -8 8 -17 16 -16 16 -17 -1 -30 -13 -10 -14 -13 -3 -13 11 0 12
-2 0 -9 -9 -6 -10 -11 -2 -15 6 -4 9 -12 5 -17 -4 -6 -13 -4 -24 6 -20 19 -44
11 -36 -11 3 -7 1 -16 -5 -20 -6 -3 -8 -13 -4 -21 5 -13 3 -14 -10 -3 -9 7
-14 19 -11 25 2 7 -3 23 -11 36 -9 13 -13 21 -8 17 4 -4 14 -3 22 3 7 6 13 8
13 4 0 -4 7 -2 15 5 10 8 12 17 6 24 -11 13 -9 42 4 53 4 4 5 3 2 -3 -8 -14
20 -27 28 -14 4 6 1 10 -4 10 -6 0 -11 5 -11 11 0 8 4 8 14 0 8 -6 19 -10 26
-9z m-363 -38 c-9 -9 -28 6 -21 18 4 6 10 6 17 -1 6 -6 8 -13 4 -17z m-43
-103 c3 -4 -4 -17 -16 -27 -13 -12 -18 -13 -12 -4 5 8 9 18 10 23 3 15 4 17 8
17 3 0 7 -4 10 -9z m378 -48 c-5 -10 -8 -26 -7 -35 2 -10 -1 -20 -5 -23 -5 -3
-7 -12 -4 -19 3 -7 -2 -16 -10 -19 -9 -4 -15 -1 -13 5 1 7 -4 12 -10 13 -19 0
-13 16 21 57 34 42 41 47 28 21z m-36 -145 c-1 -7 -5 -19 -9 -25 -5 -7 -5 -19
-1 -25 5 -8 -2 -7 -16 3 -13 9 -26 22 -28 30 -2 8 3 5 13 -6 9 -11 13 -14 10
-7 -4 8 1 19 11 27 23 18 23 18 20 3z"/>
<path d="M5754 1414 c-19 -14 -19 -14 0 -28 14 -12 22 -12 37 -3 10 6 19 14
19 17 0 3 -9 11 -19 17 -15 9 -23 9 -37 -3z m30 -24 c-6 -6 -15 -6 -24 0 -13
9 -13 11 0 20 18 11 39 -5 24 -20z"/>
<path d="M5950 1400 c0 -5 5 -12 11 -15 7 -5 4 -13 -7 -26 -9 -10 -20 -16 -25
-14 -4 3 -10 1 -14 -5 -9 -14 18 -13 33 2 9 9 17 7 34 -8 14 -11 18 -13 10 -3
-6 9 -8 20 -4 24 4 5 1 5 -5 1 -7 -4 -13 -3 -13 3 0 5 9 12 20 16 15 5 17 9 8
19 -14 14 -48 19 -48 6z"/>
<path d="M5923 1305 c0 -8 4 -12 9 -9 5 3 6 10 3 15 -9 13 -12 11 -12 -6z"/>
<path d="M5939 1193 c-13 -16 -20 -25 -15 -21 5 4 15 3 23 -4 8 -6 13 -7 12
-2 -1 5 0 11 1 14 3 10 8 40 6 40 -1 0 -13 -12 -27 -27z"/>
<path d="M6757 1512 c-15 -16 -15 -19 -2 -19 8 0 13 3 10 5 -3 3 0 11 6 19 17
20 5 16 -14 -5z"/>
<path d="M6555 1456 c0 -30 2 -53 4 -50 8 7 9 104 2 104 -4 0 -6 -24 -6 -54z"/>
<path d="M6785 1499 c-3 -4 2 -6 10 -5 21 3 28 13 10 13 -9 0 -18 -4 -20 -8z"/>
<path d="M6619 1498 c-5 -18 -6 -38 -1 -34 7 8 12 36 6 36 -2 0 -4 -1 -5 -2z"/>
<path d="M6854 1489 c-3 -6 -2 -15 3 -20 5 -5 9 -1 9 11 0 23 -2 24 -12 9z"/>
<path d="M5735 1461 c-3 -5 -2 -12 3 -15 5 -3 9 1 9 9 0 17 -3 19 -12 6z"/>
<path d="M6520 1455 c-7 -8 -16 -13 -20 -10 -5 3 -11 2 -14 -3 -10 -17 24 -8
41 10 9 10 14 18 11 18 -3 0 -11 -7 -18 -15z"/>
<path d="M6710 1455 c5 -7 6 -16 2 -21 -4 -5 -3 -6 2 -2 5 4 16 2 25 -4 12
-10 12 -7 -2 8 -9 11 -15 23 -12 26 3 2 -2 5 -10 5 -10 0 -12 -4 -5 -12z"/>
<path d="M6757 1448 c19 -21 31 -25 14 -5 -6 8 -9 16 -6 19 3 2 -2 5 -10 5
-13 0 -13 -3 2 -19z"/>
<path d="M6787 1459 c7 -7 15 -10 18 -7 3 3 -2 9 -12 12 -14 6 -15 5 -6 -5z"/>
<path d="M6821 1457 c2 -1 13 -10 25 -20 17 -14 21 -14 21 -2 0 8 -4 12 -8 9
-4 -2 -10 0 -14 6 -3 5 -11 10 -17 10 -6 0 -9 -1 -7 -3z"/>
<path d="M6893 1447 c0 -8 6 -14 14 -14 9 0 10 4 2 14 -6 7 -12 13 -14 13 -1
0 -2 -6 -2 -13z"/>
<path d="M6593 1426 l-18 -21 24 20 c13 11 25 19 28 17 3 -2 7 -2 9 1 2 2 -3
4 -11 4 -8 0 -23 -10 -32 -21z"/>
<path d="M6820 1426 c0 -2 8 -10 18 -17 15 -13 16 -12 3 4 -13 16 -21 21 -21
13z"/>
<path d="M6690 1417 c0 -2 6 -10 14 -16 11 -9 16 -9 22 1 4 7 4 10 -1 6 -4 -4
-14 -3 -22 3 -7 6 -13 9 -13 6z"/>
<path d="M6894 1400 c0 -13 4 -16 10 -10 7 7 7 13 0 20 -6 6 -10 3 -10 -10z"/>
<path d="M5690 1400 c0 -5 5 -10 10 -10 6 0 10 5 10 10 0 6 -4 10 -10 10 -5 0
-10 -4 -10 -10z"/>
<path d="M6670 1403 c0 -6 8 -17 18 -24 16 -13 16 -13 2 6 -8 11 -16 22 -17
24 -2 2 -3 0 -3 -6z"/>
<path d="M6736 1393 c-6 -14 -5 -15 5 -6 7 7 10 15 7 18 -3 3 -9 -2 -12 -12z"/>
<path d="M6799 1403 c-4 -30 -4 -82 0 -77 6 6 10 84 5 84 -2 0 -4 -3 -5 -7z"/>
<path d="M6856 1393 c-6 -14 -5 -15 5 -6 7 7 10 15 7 18 -3 3 -9 -2 -12 -12z"/>
<path d="M6513 1373 c17 -20 39 -24 53 -11 3 4 -2 5 -13 3 -10 -1 -27 5 -38
14 -20 16 -20 16 -2 -6z"/>
<path d="M6760 1375 c-7 -8 -16 -13 -20 -10 -5 3 -11 2 -14 -3 -10 -17 24 -8
41 10 9 10 14 18 11 18 -3 0 -11 -7 -18 -15z"/>
<path d="M5669 1373 c-1 -5 -1 -11 0 -15 0 -5 -3 -8 -9 -8 -5 0 -10 5 -10 10
0 6 -5 10 -11 10 -5 0 -8 -4 -4 -9 3 -5 1 -12 -4 -16 -6 -3 -8 -12 -5 -20 4
-8 10 -13 14 -10 4 2 15 -4 24 -14 15 -16 15 -19 -3 -35 -11 -10 -24 -15 -30
-11 -7 4 -8 0 -4 -11 5 -13 3 -16 -10 -11 -9 3 -19 2 -22 -3 -4 -6 -1 -11 4
-11 35 -4 46 -2 43 10 -1 7 2 10 9 5 8 -5 10 -3 4 7 -6 11 -5 12 6 2 7 -7 17
-13 21 -13 11 0 6 23 -7 32 -6 5 -5 8 4 8 8 0 11 6 7 18 -4 9 5 4 19 -13 15
-16 23 -23 19 -15 -7 13 -6 13 12 0 18 -14 18 -14 4 5 -13 17 -11 16 17 -3 18
-13 36 -28 39 -35 4 -7 -2 -4 -13 6 -40 35 -45 16 -7 -28 28 -32 23 -14 -5 19
-16 19 -16 19 10 0 16 -11 25 -26 23 -37 -3 -16 -1 -17 12 -6 8 6 12 14 9 17
-3 3 2 17 12 31 16 25 16 26 -3 11 -18 -14 -18 -14 -4 4 8 11 10 17 5 14 -6
-4 -11 2 -12 12 -1 11 2 22 8 25 5 4 6 -2 2 -11 -5 -14 -3 -16 11 -11 10 4 15
3 11 -4 -9 -14 15 -40 29 -32 6 4 4 -2 -4 -12 -12 -15 -12 -17 -1 -10 10 5 12
4 7 -4 -4 -6 -12 -9 -17 -6 -5 4 -10 1 -10 -4 -3 -26 -4 -30 -11 -37 -4 -4 -3
-13 4 -21 6 -8 7 -13 2 -12 -21 4 -28 -2 -14 -11 13 -8 13 -10 1 -10 -11 0 -9
-4 5 -15 19 -15 19 -15 0 -30 -19 -14 -11 -21 19 -15 6 1 4 -4 -2 -11 -18 -18
-16 -28 5 -24 9 1 23 -3 31 -9 11 -8 13 -8 8 1 -5 7 0 9 15 6 14 -4 20 -2 15
3 -5 5 -17 10 -28 10 -36 3 -40 4 -34 13 3 5 1 12 -5 16 -6 4 -7 12 0 24 6 12
5 22 -2 29 -8 8 -8 15 0 25 8 9 8 17 1 24 -7 7 -5 15 7 27 21 21 27 76 9 83
-8 2 -12 13 -10 24 2 11 0 17 -5 14 -8 -5 -25 12 -25 27 0 3 -4 10 -9 15 -5 4
-6 3 -3 -3 4 -7 1 -17 -7 -23 -11 -9 -15 -8 -21 6 -5 10 -7 23 -6 28 1 6 -3 5
-10 -2 -9 -9 -17 -9 -33 -1 -30 17 -48 19 -63 6 -12 -10 -17 -4 -14 15 0 4 -1
7 -4 7 -3 0 -6 -3 -6 -7z m87 -31 c12 -6 24 -9 27 -6 3 3 11 -4 17 -16 8 -16
15 -19 24 -11 10 8 17 6 30 -7 13 -16 14 -19 1 -19 -8 0 -12 4 -9 8 2 4 0 10
-5 13 -16 10 -29 -18 -26 -54 l4 -36 -41 39 c-28 27 -44 35 -51 28 -7 -7 -14
-5 -23 7 -7 9 -16 17 -21 17 -4 0 -19 9 -33 19 -14 10 -17 16 -8 13 10 -4 20
-2 23 4 4 5 10 7 15 4 5 -3 11 -1 14 3 7 11 36 9 62 -6z m129 -90 c-3 -3 -11
0 -18 7 -9 10 -8 11 6 5 10 -3 15 -9 12 -12z"/>
<path d="M5694 1341 c-3 -3 -10 -6 -15 -6 -5 0 -9 -3 -9 -7 0 -5 2 -7 4 -5 2
1 14 -7 26 -18 17 -15 23 -16 29 -6 7 11 11 9 20 -5 6 -11 11 -15 11 -11 0 4
11 -5 24 -20 21 -24 24 -25 22 -8 -2 11 -9 19 -15 18 -6 -2 -11 1 -11 6 0 5 6
11 14 13 12 3 12 6 -1 23 -13 17 -15 17 -9 2 4 -12 2 -16 -6 -11 -7 5 -8 3 -3
-5 6 -10 3 -11 -14 -2 -11 7 -21 17 -21 24 0 8 4 7 10 -3 5 -8 12 -11 17 -6 4
4 -1 13 -12 19 -23 13 -52 16 -61 8z m36 -22 c-9 -16 -14 -18 -26 -8 -8 6 -12
14 -9 18 3 3 10 0 14 -8 7 -10 10 -9 14 3 4 9 9 16 12 16 3 0 1 -9 -5 -21z"/>
<path d="M6653 1365 c0 -8 3 -13 5 -10 3 3 12 -1 21 -7 10 -8 9 -4 -3 10 -23
26 -23 26 -23 7z"/>
<path d="M6832 1346 c-17 -20 -16 -21 3 -5 11 9 28 15 37 14 10 -2 20 0 22 4
11 17 -46 5 -62 -13z"/>
<path d="M6590 1346 c0 -2 7 -7 16 -10 8 -3 12 -2 9 4 -6 10 -25 14 -25 6z"/>
<path d="M6656 1327 c3 -10 9 -15 12 -12 3 3 0 11 -7 18 -10 9 -11 8 -5 -6z"/>
<path d="M6846 1325 c-11 -8 -15 -15 -9 -15 6 0 16 7 23 15 16 19 11 19 -14 0z"/>
<path d="M5962 1316 c4 -5 3 -15 -4 -23 -16 -19 -1 -30 18 -12 13 14 13 17 -3
30 -10 7 -15 9 -11 5z"/>
<path d="M6755 1310 c-3 -5 -3 -10 1 -10 4 0 -1 -10 -12 -22 -19 -23 -19 -23
2 -5 11 9 21 24 21 32 0 18 -3 19 -12 5z"/>
<path d="M6456 1299 c4 -8 30 -6 38 2 3 3 -5 5 -19 5 -13 0 -22 -3 -19 -7z"/>
<path d="M6569 1283 c-13 -16 -12 -17 4 -4 9 7 17 15 17 17 0 8 -8 3 -21 -13z"/>
<path d="M6655 1290 c-4 -6 -12 -7 -18 -4 -7 4 -9 4 -5 -1 4 -4 3 -13 -2 -20
-7 -8 -5 -12 5 -12 8 0 13 3 10 5 -3 3 2 14 12 24 9 10 13 18 10 18 -3 0 -9
-5 -12 -10z"/>
<path d="M6690 1296 c0 -2 8 -10 18 -17 15 -13 16 -12 3 4 -13 16 -21 21 -21
13z"/>
<path d="M6499 1273 c-13 -17 -13 -17 6 -3 11 8 22 16 24 17 2 2 0 3 -6 3 -6
0 -17 -8 -24 -17z"/>
<path d="M6597 1272 c-15 -16 -15 -19 -2 -19 8 0 13 3 10 5 -3 3 0 11 6 19 17
20 5 16 -14 -5z"/>
<path d="M6672 1267 c-8 -10 -6 -13 11 -14 12 0 16 1 9 4 -6 3 -10 9 -6 14 8
14 -2 11 -14 -4z"/>
<path d="M5694 1250 c1 -16 -4 -25 -14 -25 -22 -1 -41 -15 -35 -26 4 -5 1 -9
-4 -9 -6 0 -11 5 -11 12 0 6 -7 3 -15 -8 -13 -16 -14 -16 -9 -1 8 23 -5 21
-40 -7 -16 -13 -26 -28 -22 -34 3 -6 0 -13 -6 -15 -10 -4 -10 -6 0 -6 6 -1 12
-6 12 -12 0 -5 -5 -7 -11 -3 -9 5 -10 -1 -5 -20 5 -20 4 -26 -5 -20 -8 4 -9 3
-5 -4 4 -7 1 -12 -6 -12 -10 0 -10 -2 1 -9 11 -7 11 -9 0 -13 -9 -3 -8 -6 4
-11 9 -3 16 -2 14 4 -1 6 9 18 23 27 17 12 22 13 16 3 -7 -10 -5 -12 4 -6 8 5
11 4 7 -2 -3 -5 0 -10 8 -10 8 0 12 5 9 11 -3 6 1 4 7 -5 12 -16 14 -16 28 0
11 12 13 12 6 1 -6 -10 -2 -8 13 4 25 21 37 15 37 -17 0 -18 6 -22 27 -21 15
1 26 -2 23 -5 -2 -4 5 -7 15 -7 10 0 17 3 15 6 -8 13 35 8 45 -6 7 -7 17 -11
24 -7 6 4 4 -1 -3 -11 -13 -16 -13 -17 5 -14 10 1 22 7 25 12 4 4 10 3 13 -3
4 -6 2 -11 -4 -11 -6 0 -8 -5 -4 -11 5 -8 9 -8 14 1 4 6 7 -9 6 -33 -1 -25 -5
-43 -11 -41 -5 2 -18 -8 -29 -22 -18 -26 -18 -26 3 -15 17 10 20 9 15 -4 -3
-8 -9 -13 -13 -11 -4 3 -13 0 -21 -6 -13 -8 -13 -9 1 -5 11 4 15 -2 15 -24 0
-24 -2 -27 -15 -16 -11 9 -11 7 2 -13 9 -14 16 -29 16 -33 -1 -5 3 -12 7 -15
4 -4 4 3 1 16 -3 13 1 28 9 36 11 11 11 16 1 19 -9 4 -9 7 1 15 7 5 10 16 6
27 -6 14 -4 16 6 10 9 -5 11 -4 6 3 -4 7 -4 18 1 25 4 6 9 23 11 37 2 13 9 31
15 39 9 12 9 13 0 7 -7 -4 -13 -3 -13 3 0 5 5 13 10 16 16 10 12 28 -5 22 -8
-4 -17 -2 -20 3 -3 5 -14 7 -25 5 -10 -2 -24 3 -31 11 -9 11 -9 14 2 14 8 0 6
5 -6 14 -18 13 -18 13 1 24 16 10 17 13 5 21 -8 5 -21 7 -30 4 -12 -3 -11 0 3
11 11 9 16 16 12 16 -5 0 -3 7 4 15 7 8 9 15 5 15 -4 0 -2 7 5 15 7 8 9 15 5
15 -4 0 0 11 9 24 10 15 12 27 6 31 -9 6 -14 -1 -11 -17 0 -5 -4 -8 -10 -8 -5
0 -8 -4 -5 -9 3 -4 -3 -16 -13 -25 -18 -17 -21 -15 -55 30 -20 26 -36 41 -36
34 0 -7 -8 -2 -19 11 l-19 23 2 -24z m58 -38 c7 -7 9 -12 5 -12 -3 0 5 -12 20
-26 24 -25 26 -25 46 -7 19 16 20 16 8 1 -7 -10 -10 -18 -7 -18 4 0 -2 -13
-13 -29 -18 -24 -19 -31 -7 -40 11 -9 15 -9 19 1 4 9 6 9 6 1 1 -6 -4 -15 -9
-18 -8 -5 -7 -11 1 -21 6 -8 8 -14 4 -14 -4 0 -1 -8 6 -17 13 -17 12 -17 -6
-2 -13 11 -37 15 -71 14 -39 -1 -51 2 -47 12 13 34 -37 52 -70 25 -11 -9 -17
-10 -22 -2 -3 6 -10 8 -15 5 -5 -3 -12 -1 -15 5 -5 8 -16 5 -33 -6 -23 -15
-25 -15 -14 -1 8 9 11 21 8 26 -4 5 -2 12 4 16 5 3 8 18 6 33 -4 21 1 32 21
46 15 11 23 14 19 8 -3 -6 -2 -13 3 -16 5 -4 13 -2 16 4 5 8 11 7 21 -1 10 -8
14 -8 15 0 1 6 2 17 3 24 1 6 9 11 18 9 9 -1 19 1 22 6 7 12 44 8 58 -6z m163
-224 c5 4 5 1 1 -6 -6 -10 -11 -10 -22 -1 -8 6 -14 14 -14 16 0 3 6 0 13 -6 8
-6 18 -7 22 -3z"/>
<path d="M5694 1208 c-4 -5 -12 -7 -19 -4 -10 3 -12 -2 -9 -19 4 -23 -8 -28
-33 -12 -6 4 -15 3 -18 -3 -5 -8 -11 -8 -20 0 -16 13 -34 -7 -29 -35 1 -10 -2
-25 -8 -32 -6 -7 -8 -14 -4 -14 13 -3 26 -7 31 -9 3 -1 9 -3 14 -4 5 0 13 -4
17 -8 4 -4 14 -2 22 4 8 7 21 13 30 14 17 3 63 -29 63 -43 -1 -4 19 -8 44 -8
40 0 44 1 29 12 -11 8 -13 13 -5 13 9 0 7 5 -4 16 -12 12 -13 19 -4 30 6 8 8
14 3 14 -4 0 1 7 12 15 14 11 15 14 2 9 -10 -3 -20 2 -27 15 -6 11 -20 23 -31
26 -11 3 -20 11 -20 16 0 6 6 7 13 3 6 -4 9 -3 4 1 -10 12 -47 14 -53 3z m92
-81 c1 -9 -2 -19 -7 -23 -5 -3 -7 -10 -4 -15 4 -5 8 -17 10 -27 2 -14 -3 -18
-25 -18 -16 0 -27 3 -25 6 6 10 -50 49 -68 46 -8 -1 -22 -8 -30 -14 -10 -9
-17 -10 -22 -2 -3 6 -10 8 -15 5 -5 -3 -11 -1 -15 5 -4 6 -12 8 -18 4 -7 -3
-4 1 6 9 10 9 14 18 8 21 -8 5 -8 14 -2 45 1 2 7 -2 15 -8 10 -8 16 -9 21 -1
3 6 11 8 16 4 5 -3 7 -10 4 -15 -4 -5 -1 -9 4 -9 6 0 11 5 11 11 0 5 4 8 9 5
5 -3 14 1 21 9 10 12 10 15 -1 15 -8 0 -5 6 7 14 17 13 23 11 58 -18 22 -18
40 -40 42 -49z"/>
<path d="M5699 1196 c-1 -3 -2 -9 -3 -13 -1 -5 -8 -17 -16 -28 -17 -24 -57
-28 -52 -6 2 11 0 12 -11 3 -10 -8 -16 -9 -25 0 -8 8 -10 6 -8 -5 1 -9 5 -19
8 -23 4 -3 4 -13 1 -22 -4 -10 -2 -13 5 -8 6 3 14 2 17 -4 5 -8 12 -7 22 2 26
21 45 18 85 -13 40 -32 65 -32 48 0 -5 10 -6 21 -3 25 17 17 8 38 -28 67 -21
17 -40 28 -40 25z m41 -41 c0 4 6 2 14 -4 11 -9 15 -46 6 -46 -1 0 -3 -8 -5
-17 -2 -10 2 -18 8 -18 5 0 8 -3 4 -6 -3 -4 -23 7 -45 24 -39 32 -59 35 -84
14 -18 -14 -29 -6 -21 16 4 10 2 13 -5 8 -6 -3 -13 -2 -16 3 -4 5 2 8 11 7 9
-2 19 -8 21 -14 2 -7 9 -9 15 -5 12 8 18 9 38 12 5 0 8 5 5 10 -3 5 1 14 9 21
8 7 12 17 9 24 -3 6 4 0 15 -13 12 -13 21 -20 21 -16z"/>
<path d="M5703 1158 c-15 -25 -11 -38 20 -60 17 -12 27 -17 24 -11 -4 7 -3 14
2 17 13 8 7 41 -7 42 -7 1 -17 2 -23 3 -5 0 -7 6 -4 11 3 6 4 10 1 10 -3 0 -8
-6 -13 -12z m40 -22 c3 3 4 -1 3 -10 -1 -8 -6 -19 -10 -23 -4 -4 -6 -2 -4 6 2
7 -3 16 -11 19 -9 3 -11 0 -6 -9 5 -8 4 -10 0 -6 -5 4 -10 14 -11 22 -2 11 2
12 16 5 9 -5 20 -7 23 -4z"/>
<path d="M6556 1251 c-3 -5 -19 -7 -36 -6 -17 1 -32 -1 -35 -4 -7 -13 64 -6
77 7 7 7 9 12 6 12 -4 0 -9 -4 -12 -9z"/>
<path d="M6717 1231 c-10 -14 -10 -14 4 -4 9 7 18 10 21 7 3 -3 8 -1 12 4 9
16 -24 9 -37 -7z"/>
<path d="M6593 1213 c0 -9 4 -10 14 -2 7 6 13 12 13 14 0 1 -6 2 -13 2 -8 0
-14 -6 -14 -14z"/>
<path d="M6635 1222 c3 -3 -3 -15 -12 -26 -14 -15 -14 -18 -2 -8 9 6 18 11 20
9 2 -1 3 0 2 2 -2 2 2 9 7 16 7 8 5 12 -5 12 -8 0 -13 -3 -10 -5z"/>
<path d="M6675 1222 c3 -3 -1 -12 -7 -21 -8 -10 -4 -9 10 3 26 23 26 23 7 23
-8 0 -13 -3 -10 -5z"/>
<path d="M6756 1221 c-3 -5 2 -15 12 -22 15 -12 16 -12 5 2 -7 9 -10 19 -6 22
3 4 4 7 0 7 -3 0 -8 -4 -11 -9z"/>
<path d="M6790 1215 c5 -7 6 -16 2 -21 -4 -5 -3 -6 2 -2 5 4 16 2 25 -4 12
-10 12 -7 -2 8 -9 11 -15 23 -12 26 3 2 -2 5 -10 5 -10 0 -12 -4 -5 -12z"/>
<path d="M6832 1211 c7 -9 13 -18 15 -20 1 -2 1 5 0 16 0 11 -7 20 -14 20 -10
0 -10 -4 -1 -16z"/>
<path d="M6529 1204 c-11 -14 -24 -52 -14 -42 2 1 3 6 2 9 -1 4 7 16 17 28 11
12 17 21 14 21 -3 0 -12 -7 -19 -16z"/>
<path d="M6560 1206 c0 -2 8 -10 18 -17 15 -13 16 -12 3 4 -13 16 -21 21 -21
13z"/>
<path d="M6699 1193 c-13 -16 -12 -17 4 -4 9 7 17 15 17 17 0 8 -8 3 -21 -13z"/>
<path d="M6439 1195 c-1 -3 -2 -8 -3 -12 -1 -5 -5 -15 -10 -23 -7 -12 -6 -13
4 -3 13 12 23 43 14 43 -2 0 -5 -2 -5 -5z"/>
<path d="M6465 1179 c-3 -4 2 -6 10 -5 21 3 28 13 10 13 -9 0 -18 -4 -20 -8z"/>
<path d="M6719 1173 c-13 -16 -12 -17 4 -4 16 13 21 21 13 21 -2 0 -10 -8 -17
-17z"/>
<path d="M6610 1161 c0 -6 4 -13 10 -16 6 -3 7 1 4 9 -7 18 -14 21 -14 7z"/>
<path d="M6739 1153 c-13 -16 -12 -17 4 -4 16 13 21 21 13 21 -2 0 -10 -8 -17
-17z"/>
<path d="M6804 1162 c4 -3 14 -7 22 -8 9 -1 13 0 10 4 -4 3 -14 7 -22 8 -9 1
-13 0 -10 -4z"/>
<path d="M6479 1158 c-5 -18 -6 -38 -1 -34 7 8 12 36 6 36 -2 0 -4 -1 -5 -2z"/>
<path d="M6440 1135 c-7 -8 -16 -13 -20 -10 -5 3 -11 2 -14 -3 -10 -17 24 -8
41 10 9 10 14 18 11 18 -3 0 -11 -7 -18 -15z"/>
<path d="M6667 1139 c7 -7 15 -10 18 -7 3 3 -2 9 -12 12 -14 6 -15 5 -6 -5z"/>
<path d="M6760 1135 c-7 -8 -15 -13 -19 -11 -4 3 -13 1 -21 -4 -11 -7 -9 -9 8
-7 19 1 67 37 50 37 -3 0 -11 -7 -18 -15z"/>
<path d="M6604 1122 c23 -26 23 -26 23 -7 0 8 -3 13 -5 10 -3 -3 -12 1 -21 7
-10 8 -9 4 3 -10z"/>
<path d="M6813 1127 c0 -8 6 -14 14 -14 9 0 10 4 2 14 -6 7 -12 13 -14 13 -1
0 -2 -6 -2 -13z"/>
<path d="M5907 1119 c7 -7 15 -10 18 -7 3 3 -2 9 -12 12 -14 6 -15 5 -6 -5z"/>
<path d="M6494 1118 c-4 -7 -4 -10 1 -6 4 4 15 2 24 -5 14 -11 14 -10 2 6 -16
20 -18 21 -27 5z"/>
<path d="M6550 1095 c5 -7 7 -15 3 -18 -3 -4 -1 -7 5 -7 6 0 10 8 9 18 0 10
-7 19 -14 19 -9 0 -10 -4 -3 -12z"/>
<path d="M6580 1106 c0 -2 8 -10 18 -17 15 -13 16 -12 3 4 -13 16 -21 21 -21
13z"/>
<path d="M6494 1080 c0 -13 4 -16 10 -10 7 7 7 13 0 20 -6 6 -10 3 -10 -10z"/>
<path d="M6813 1085 c0 -8 4 -15 9 -15 4 0 8 4 8 9 0 6 -4 12 -8 15 -5 3 -9
-1 -9 -9z"/>
<path d="M6435 1070 c-3 -5 -3 -10 1 -10 4 0 -1 -10 -12 -22 -19 -23 -19 -23
2 -5 11 9 21 24 21 32 0 18 -3 19 -12 5z"/>
<path d="M6673 1065 c0 -8 10 -23 21 -32 21 -18 21 -18 4 2 -9 11 -17 24 -16
28 0 5 -2 11 -4 13 -3 2 -5 -3 -5 -11z"/>
<path d="M6396 1058 c3 -5 10 -6 15 -3 13 9 11 12 -6 12 -8 0 -12 -4 -9 -9z"/>
<path d="M6710 1056 c7 -7 13 -7 20 0 6 6 3 10 -10 10 -13 0 -16 -4 -10 -10z"/>
<path d="M6791 1053 c7 -12 15 -20 18 -17 3 2 -3 12 -13 22 -17 16 -18 16 -5
-5z"/>
<path d="M5652 1040 c-16 -14 -29 -17 -40 -11 -10 4 -23 6 -29 4 -7 -3 -13 1
-13 7 0 6 -6 10 -12 8 -7 -3 -13 -11 -13 -19 0 -8 -8 -13 -18 -11 -9 2 -18 -2
-18 -8 -2 -14 -6 -30 -9 -32 -1 -2 -4 -12 -6 -23 -6 -37 -9 -50 -18 -63 -13
-22 3 -27 22 -7 12 13 13 15 2 9 -12 -6 -13 -5 -3 7 7 8 10 28 7 45 -3 19 -1
24 5 15 6 -9 11 -10 15 -2 4 6 1 11 -6 11 -9 0 -9 3 2 10 11 7 11 10 2 10 -7
0 -10 5 -6 11 4 8 9 7 15 -2 4 -7 5 -17 3 -21 -3 -4 -1 -8 5 -8 15 0 23 18 11
25 -6 4 -8 11 -5 16 9 13 54 3 79 -18 21 -18 21 -18 3 3 -17 20 -17 21 7 20
13 -1 30 -7 38 -14 8 -6 19 -8 23 -4 5 4 4 0 0 -8 -8 -13 -7 -13 11 0 17 13
18 13 7 0 -15 -20 -15 -31 3 -57 8 -13 10 -23 5 -23 -5 0 -11 5 -13 11 -2 6
-16 13 -31 14 -18 2 -25 0 -20 -8 4 -7 -2 -5 -12 3 -17 13 -18 13 -10 0 8 -13
7 -13 -8 -1 -18 15 -23 26 -7 16 6 -4 7 1 4 12 -4 14 -3 15 4 4 5 -7 12 -9 15
-5 3 5 -7 18 -21 28 -16 12 -23 14 -18 5 4 -8 1 -6 -8 5 -14 18 -15 16 -12
-18 2 -19 0 -34 -4 -31 -4 2 -16 -2 -26 -10 -16 -13 -17 -14 -1 -9 20 7 22 -6
5 -25 -7 -8 -8 -11 -2 -8 6 3 11 0 11 -8 0 -8 -4 -15 -9 -15 -5 0 -6 -5 -3
-11 11 -16 34 22 29 48 -5 29 13 39 35 19 10 -9 21 -13 26 -9 4 5 4 1 0 -7 -7
-12 -6 -13 7 -3 13 11 15 8 13 -22 -2 -22 1 -32 8 -28 6 3 7 1 3 -6 -4 -6 -12
-9 -17 -6 -5 4 -9 1 -9 -4 0 -6 5 -11 11 -11 5 0 8 -4 4 -9 -3 -5 0 -13 6 -17
8 -5 9 -3 4 6 -5 9 -4 11 4 6 6 -4 8 -12 5 -18 -5 -7 -2 -8 7 -3 11 7 12 5 4
-6 -5 -8 -3 -7 6 3 9 9 19 14 23 11 7 -7 -35 -39 -46 -35 -5 1 -8 -3 -8 -8 0
-15 9 -12 37 10 14 11 30 17 36 13 6 -3 7 -1 3 5 -4 7 1 9 15 7 17 -3 19 -2 9
10 -6 7 -20 12 -31 10 -13 -3 -17 0 -13 8 5 8 3 8 -7 0 -7 -7 -18 -13 -23 -13
-6 0 -2 7 8 15 19 14 19 15 1 35 -17 19 -17 19 4 15 22 -4 29 10 9 18 -7 3 -3
4 9 4 12 -1 20 -4 18 -7 -2 -3 5 -6 15 -6 10 0 16 5 14 11 -3 5 1 2 9 -8 9
-10 18 -14 21 -8 3 5 0 11 -6 14 -7 3 -4 5 8 4 11 -1 21 -7 21 -14 0 -6 -5 -9
-10 -6 -6 4 -7 1 -2 -7 6 -9 4 -11 -6 -5 -11 7 -12 6 -2 -6 9 -12 10 -18 1
-27 -8 -8 -7 -13 5 -18 9 -3 14 -11 11 -16 -4 -6 -9 -6 -14 2 -5 9 -9 9 -14 1
-4 -6 -2 -11 5 -11 7 0 5 -6 -6 -13 -19 -14 -12 -43 7 -31 7 4 8 2 4 -4 -4 -7
1 -9 15 -7 25 5 38 15 20 15 -7 0 -10 4 -6 9 3 5 1 12 -5 16 -6 4 -8 11 -4 16
3 5 10 7 15 4 15 -10 10 7 -7 19 -13 10 -11 17 18 56 19 25 34 50 33 57 0 18
-23 38 -43 38 -9 0 -17 5 -17 12 0 19 -25 40 -33 28 -9 -13 -62 -16 -62 -3 0
6 -7 8 -15 5 -8 -4 -17 -2 -20 4 -4 5 -11 7 -16 4 -5 -4 -9 -1 -9 4 0 6 6 11
13 11 9 0 8 3 -2 9 -11 7 -11 9 0 14 8 3 10 6 4 6 -5 0 -21 -8 -33 -19z m163
-60 c-7 -11 22 -33 34 -26 10 6 24 -10 27 -30 1 -5 -10 -24 -25 -40 -14 -16
-23 -25 -19 -18 4 6 5 14 1 17 -3 4 -1 7 6 7 7 0 10 4 7 9 -4 5 -31 8 -61 6
-30 -1 -52 1 -50 6 3 4 1 10 -5 14 -6 4 -8 11 -5 16 4 5 2 9 -4 9 -5 0 -8 7
-7 15 4 25 14 28 28 6 7 -12 16 -21 21 -21 4 0 5 6 1 13 -5 7 0 6 11 -3 17
-13 18 -13 13 1 -7 18 10 41 24 33 4 -3 6 -9 3 -14z m-202 -17 c-3 -7 -8 -13
-12 -13 -4 0 -8 6 -8 13 0 8 6 14 13 14 7 0 10 -6 7 -14z m80 -46 c14 -15 20
-37 10 -36 -22 4 -24 -3 -9 -20 14 -16 15 -20 2 -30 -9 -8 -16 -8 -20 -2 -4 5
-2 13 4 16 8 5 7 12 -2 23 -10 12 -10 16 0 19 6 3 12 9 12 14 0 6 -4 8 -8 5
-5 -3 -9 1 -9 9 0 18 5 19 20 2z m133 -163 c2 -11 -1 -12 -10 -5 -7 6 -16 8
-19 4 -4 -3 -7 -1 -7 5 0 11 22 22 29 15 3 -2 6 -10 7 -19z"/>
<path d="M5797 983 c-4 -3 -2 -12 4 -20 6 -7 8 -13 3 -14 -5 0 -18 -2 -29 -4
-12 -3 -27 5 -38 18 l-18 22 11 -22 c6 -13 8 -23 4 -23 -3 0 -1 -7 6 -15 12
-14 43 -15 56 -2 12 12 26 8 18 -5 -6 -10 -4 -10 7 0 14 13 30 16 27 5 -2 -5
2 -9 7 -10 6 -2 10 5 10 15 -1 9 -7 16 -14 14 -17 -4 -52 28 -45 39 6 11 0 12
-9 2z m-3 -52 c-8 -9 -43 -11 -48 -3 -2 4 9 7 25 7 15 1 26 -1 23 -4z"/>
<path d="M6510 1043 c0 -6 8 -17 18 -24 16 -13 16 -13 2 6 -8 11 -16 22 -17
24 -2 2 -3 0 -3 -6z"/>
<path d="M6594 1028 c-19 -23 -19 -23 2 -5 11 9 24 14 27 10 4 -3 7 -1 7 5 0
19 -15 14 -36 -10z"/>
<path d="M6739 1033 c-13 -16 -12 -17 4 -4 14 11 20 11 35 0 15 -13 16 -12 3
4 -7 9 -17 17 -21 17 -4 0 -14 -8 -21 -17z"/>
<path d="M6494 1006 c1 -8 5 -18 8 -22 4 -3 5 1 4 10 -1 8 -5 18 -8 22 -4 3
-5 -1 -4 -10z"/>
<path d="M6619 1018 c-5 -18 -6 -38 -1 -34 7 8 12 36 6 36 -2 0 -4 -1 -5 -2z"/>
<path d="M5558 997 c7 -8 6 -18 -4 -31 -8 -11 -14 -16 -14 -11 0 5 -6 3 -12
-3 -17 -17 -16 -45 2 -59 12 -10 13 -14 2 -25 -11 -11 -12 -10 -7 5 9 23 0 22
-35 -4 -18 -14 -27 -29 -25 -40 2 -11 0 -19 -5 -19 -5 0 -7 -9 -5 -20 2 -11
-1 -20 -7 -20 -5 0 -8 -6 -5 -14 3 -7 0 -19 -6 -26 -9 -10 -9 -11 1 -6 18 11
15 -5 -5 -20 -17 -13 -17 -14 2 -8 20 6 20 5 1 -10 -11 -9 -16 -16 -12 -16 5
0 3 -7 -5 -16 -10 -13 -10 -17 0 -24 10 -6 9 -10 -5 -18 -10 -6 -16 -14 -12
-18 5 -4 3 -13 -3 -21 -9 -10 -8 -17 2 -30 12 -14 12 -16 -2 -11 -9 3 -16 1
-16 -5 0 -7 -3 -22 -7 -34 -9 -27 2 -29 30 -8 16 13 16 14 2 9 -18 -6 -25 10
-9 20 11 7 43 -28 34 -37 -3 -4 -1 -7 5 -7 14 0 16 11 5 26 -5 5 3 -2 16 -16
13 -14 20 -18 16 -10 -15 29 -38 49 -48 43 -6 -4 -7 -1 -2 7 5 8 4 11 -3 6
-11 -7 -11 12 1 32 5 6 4 12 -1 12 -5 0 -9 7 -9 16 0 15 2 14 14 -1 7 -10 16
-15 20 -12 3 4 3 7 -2 7 -4 0 0 10 11 22 19 22 19 23 -1 8 l-20 -15 20 24 c11
14 14 21 6 16 -10 -6 -12 -4 -6 5 5 9 4 11 -3 6 -8 -5 -10 -2 -6 8 3 9 10 14
14 11 5 -3 12 0 16 6 5 8 3 9 -7 4 -11 -7 -11 -5 1 10 8 10 10 16 4 12 -7 -4
-11 2 -10 16 1 12 -3 29 -8 37 -10 13 -9 13 8 0 16 -12 18 -12 11 -1 -5 9 -4
12 2 8 5 -3 10 0 10 8 0 8 -5 11 -10 8 -6 -4 -7 -1 -2 7 6 9 4 11 -6 5 -8 -5
-6 1 4 12 13 15 15 22 6 25 -9 3 -8 6 3 10 10 4 23 -2 35 -15 18 -21 18 -21
-2 -7 -19 14 -19 14 -5 -4 13 -18 13 -19 0 -11 -13 8 -13 7 0 -10 13 -17 13
-18 0 -10 -12 7 -13 6 -3 -7 7 -8 10 -18 6 -21 -3 -4 -1 -7 5 -7 7 0 12 5 12
11 0 5 5 7 10 4 6 -3 10 -1 10 5 0 7 -6 10 -13 7 -8 -3 -14 1 -14 9 0 18 11
18 26 0 12 -14 4 -49 -9 -41 -12 8 -6 -23 8 -37 9 -9 11 -7 8 8 -3 12 4 25 15
33 19 11 19 11 3 -16 l-16 -28 21 25 c14 16 19 19 15 8 -3 -10 -2 -18 4 -18 6
0 9 8 7 18 -1 9 2 25 7 36 8 14 7 17 -3 11 -7 -5 -10 -4 -5 3 3 6 1 14 -5 18
-8 5 -9 3 -4 -7 7 -11 5 -11 -11 1 -18 14 -18 14 -1 -6 9 -11 17 -25 17 -30 0
-4 -8 3 -17 16 -10 14 -17 28 -15 33 1 4 -2 7 -8 7 -15 0 -12 -11 7 -32 14
-15 14 -21 3 -31 -10 -9 -11 -9 -6 0 4 7 -4 28 -19 47 l-25 33 26 -1 c15 -1
29 5 32 13 2 8 0 11 -6 8 -21 -14 -35 34 -19 60 6 9 3 11 -7 7 -25 -10 -19 14
8 31 13 9 23 24 21 33 -2 9 -4 20 -4 25 -1 4 -6 7 -12 7 -8 0 -8 -4 -1 -13z
m-40 -129 c-2 -7 2 -12 9 -13 7 0 17 -5 23 -11 8 -8 4 -11 -14 -10 -14 1 -28
5 -31 8 -4 4 -14 4 -23 1 -10 -4 -6 3 8 15 30 25 31 26 28 10z m-83 -217 c-3
-5 -1 -13 5 -16 8 -5 8 -11 1 -19 -6 -7 -7 -17 -3 -21 4 -5 1 -5 -6 -1 -10 6
-10 11 -2 21 8 9 8 15 0 20 -10 6 -5 25 6 25 3 0 3 -4 -1 -9z"/>
<path d="M5645 987 c9 -13 11 -25 5 -32 -6 -7 0 -11 19 -10 16 0 28 4 27 10
-3 19 -17 35 -27 29 -5 -3 -8 0 -7 6 2 7 -5 14 -14 15 -16 3 -16 1 -3 -18z
m45 -21 c0 -2 -7 -7 -16 -10 -8 -3 -12 -2 -9 4 6 10 25 14 25 6z"/>
<path d="M6397 972 c-15 -16 -15 -19 -2 -19 8 0 13 3 10 5 -3 3 0 11 6 19 17
20 5 16 -14 -5z"/>
<path d="M6435 982 c3 -3 -1 -12 -7 -21 -8 -10 -4 -9 10 3 26 23 26 23 7 23
-8 0 -13 -3 -10 -5z"/>
<path d="M6677 968 c19 -21 31 -25 14 -5 -6 8 -9 16 -6 19 3 2 -2 5 -10 5 -13
0 -13 -3 2 -19z"/>
<path d="M6710 975 c5 -7 6 -16 2 -21 -4 -5 -3 -6 2 -2 5 4 16 2 25 -4 12 -10
12 -7 -2 8 -9 11 -15 23 -12 26 3 2 -2 5 -10 5 -10 0 -12 -4 -5 -12z"/>
<path d="M6757 968 c19 -21 31 -25 14 -5 -6 8 -9 16 -6 19 3 2 -2 5 -10 5 -13
0 -13 -3 2 -19z"/>
<path d="M6473 964 c3 -3 12 -6 20 -8 8 -1 23 -8 33 -16 18 -14 18 -14 2 6 -9
11 -27 20 -39 21 -12 1 -19 0 -16 -3z"/>
<path d="M6592 946 c-16 -20 -16 -20 2 -6 24 19 47 21 66 7 13 -10 13 -10 2 5
-17 22 -48 19 -70 -6z"/>
<path d="M6402 917 c-17 -18 -19 -24 -7 -24 8 0 13 3 10 5 -3 3 2 14 12 24 24
27 10 22 -15 -5z"/>
<path d="M6699 928 c15 -21 31 -23 31 -6 0 6 -3 8 -7 5 -3 -4 -13 -1 -22 6
-14 11 -14 10 -2 -5z"/>
<path d="M6774 920 c0 -13 4 -16 10 -10 7 7 7 13 0 20 -6 6 -10 3 -10 -10z"/>
<path d="M5594 905 c3 -13 1 -27 -4 -30 -5 -3 -7 -12 -3 -20 3 -9 0 -22 -6
-29 -8 -10 -9 -16 -1 -21 5 -3 10 -3 10 1 0 4 9 -1 20 -11 11 -10 17 -22 14
-26 -10 -17 -13 -49 -3 -44 5 4 9 1 9 -4 0 -10 -4 -12 -36 -15 -6 -1 -18 -7
-26 -14 -12 -10 -18 -8 -33 8 -10 11 -14 20 -9 20 5 0 1 5 -9 11 -9 6 -15 14
-12 19 3 5 0 12 -7 16 -7 4 -10 3 -5 -1 4 -5 -1 -17 -10 -27 -12 -14 -14 -21
-6 -26 12 -8 12 -29 1 -48 -4 -5 -5 -19 -4 -30 2 -10 -3 -27 -12 -36 -8 -10
-11 -18 -6 -18 5 0 -2 -9 -14 -18 l-24 -18 34 -30 c40 -35 45 -58 11 -53 -5 1
-15 2 -23 3 -8 0 -14 6 -13 13 2 8 -8 6 -27 -5 -28 -16 -31 -21 -29 -38 0 -4
-5 -11 -13 -15 -10 -7 -10 -9 2 -9 12 0 12 -2 2 -9 -11 -7 -10 -9 3 -14 9 -4
14 -3 11 2 -3 5 9 20 28 34 25 19 36 23 45 14 8 -8 11 -7 11 4 0 12 2 12 9 0
7 -11 14 -10 38 9 20 17 23 21 8 17 -19 -7 -19 -7 -1 8 10 8 23 12 29 8 6 -4
7 -1 2 7 -5 9 -4 11 4 6 6 -4 9 -12 6 -17 -4 -5 -1 -9 5 -9 7 0 10 7 6 15 -3
8 2 18 10 23 14 8 14 10 0 21 -13 11 -19 11 -31 1 -14 -11 -19 -7 -16 13 0 4
-4 7 -10 7 -6 0 -8 -7 -5 -18 7 -16 6 -16 -11 1 -17 18 -17 19 6 38 13 10 17
19 10 19 -8 0 -5 6 7 16 18 14 18 15 -5 4 -18 -10 -22 -9 -16 1 6 8 4 10 -5 4
-9 -6 -11 -4 -5 5 5 8 4 11 -2 7 -11 -7 -11 29 1 40 4 5 7 3 6 -2 -5 -23 1
-34 15 -29 13 5 13 8 0 21 -19 18 -19 20 0 20 8 0 11 -5 8 -10 -3 -6 -1 -7 5
-3 6 3 9 -1 8 -11 -2 -10 4 -23 13 -30 11 -9 12 -12 3 -13 -15 0 -6 -20 9 -20
6 0 8 4 4 9 -3 5 0 13 6 17 7 4 9 3 6 -3 -3 -5 0 -10 6 -10 7 0 13 11 13 23 0
12 -4 20 -10 17 -5 -3 -6 -1 -2 5 3 6 1 14 -5 18 -8 5 -9 3 -4 -5 6 -10 3 -11
-14 -2 -24 13 -28 23 -6 15 9 -4 15 0 15 7 0 11 2 11 9 1 6 -10 10 -10 21 3 7
8 18 15 24 15 6 0 5 -4 -3 -9 -9 -6 -10 -11 -2 -15 6 -4 11 -2 11 4 0 6 4 9 9
6 5 -3 14 1 21 9 7 8 17 15 23 15 6 0 -4 -11 -23 -25 -19 -14 -30 -25 -25 -25
5 0 17 7 26 16 17 15 18 15 14 -5 -2 -11 1 -21 7 -21 6 0 7 8 3 18 -5 14 -4
15 7 4 11 -11 10 -16 -6 -28 -11 -8 -15 -14 -8 -14 6 0 18 10 27 23 8 12 18
21 20 20 3 -2 6 -3 8 -2 22 7 36 5 31 -3 -4 -7 -2 -8 5 -4 9 6 9 11 -1 24 -11
13 -11 14 1 7 10 -6 12 -4 6 6 -5 8 -5 11 0 7 4 -4 16 -3 26 3 15 8 17 6 12
-8 -3 -10 -3 -15 2 -11 4 4 16 3 25 -2 15 -8 18 -6 15 8 -2 9 -4 20 -4 25 -1
4 -12 5 -25 3 -32 -6 -64 27 -47 48 10 12 9 14 -6 11 -10 -2 -18 -4 -18 -5 0
-1 -8 -3 -18 -5 -10 -2 -27 -11 -38 -21 -16 -14 -21 -15 -34 -4 -15 12 -15 14
-1 22 14 8 13 12 -5 38 -13 17 -18 33 -13 41 10 17 13 50 4 44 -4 -3 -15 4
-25 15 -24 27 -36 25 -31 -5z m32 -7 c10 -12 14 -18 8 -15 -14 8 -27 -20 -14
-28 6 -4 10 -1 10 4 0 6 5 11 11 11 8 0 8 -4 0 -14 -15 -18 -11 -36 12 -56 18
-15 18 -16 -1 -17 -11 -1 -28 7 -37 17 -10 11 -22 17 -27 14 -6 -4 -2 5 7 20
14 20 14 26 4 26 -11 0 -11 2 -2 8 7 4 11 18 8 30 -5 27 -3 27 21 0z m10 -144
c-4 -11 -2 -15 8 -11 7 3 19 0 25 -6 8 -8 16 -6 29 6 10 9 22 14 25 10 4 -3 7
0 7 8 1 10 4 9 11 -4 6 -9 14 -15 18 -12 11 6 36 -23 27 -32 -3 -3 -6 0 -6 7
0 9 -5 7 -14 -5 -8 -11 -12 -24 -9 -29 4 -5 1 -6 -5 -2 -6 3 -13 2 -16 -3 -9
-15 -41 -6 -41 12 0 26 -14 31 -33 14 -20 -19 -38 -11 -22 8 8 9 6 14 -5 18
-13 6 -11 37 2 37 3 0 2 -7 -1 -16z m-119 -42 l21 -28 -24 0 c-15 0 -20 4 -15
9 12 12 2 39 -12 30 -6 -3 -7 -1 -3 5 10 16 9 16 33 -16z m67 -81 c4 -5 -1 -8
-10 -7 -9 1 -21 10 -26 20 -9 16 -7 16 10 7 12 -6 23 -15 26 -20z m-85 -57
c-6 -8 -15 -11 -20 -8 -17 10 -9 -13 11 -31 24 -22 47 -27 56 -14 3 5 10 9 15
9 13 0 7 -21 -6 -22 -6 0 -23 -9 -38 -20 -15 -11 -27 -16 -26 -11 3 19 -2 34
-10 29 -4 -3 -19 6 -32 21 -13 14 -19 23 -12 19 7 -4 17 2 23 14 6 11 8 20 4
20 -3 0 -1 7 6 15 10 12 16 13 26 4 11 -9 11 -15 3 -25z m-81 -127 c-33 -31
-46 -39 -44 -25 3 22 17 39 27 33 5 -4 9 -1 9 5 0 6 5 8 10 5 7 -4 6 -11 -2
-18z"/>
<path d="M5607 836 c-6 -14 21 -46 39 -46 5 0 3 4 -5 9 -8 5 -16 17 -17 26 -4
24 -11 28 -17 11z"/>
<path d="M5700 735 c-8 -10 -8 -15 0 -20 6 -4 9 -13 6 -20 -5 -14 11 -15 31
-2 16 10 37 48 26 46 -4 -1 -10 0 -13 1 -21 8 -41 6 -50 -5z m47 -12 c2 -5 -4
-16 -14 -24 -9 -8 -14 -9 -10 -3 4 7 0 15 -9 18 -8 3 -13 10 -10 15 8 12 39 7
43 -6z"/>
<path d="M5653 733 c4 -3 1 -13 -6 -22 -11 -14 -10 -14 5 -2 16 12 16 31 1 31
-4 0 -3 -3 0 -7z"/>
<path d="M5476 591 c-4 -5 -2 -12 3 -15 5 -4 12 -2 15 3 4 5 2 12 -3 15 -5 4
-12 2 -15 -3z"/>
<path d="M5456 542 c-3 -5 1 -15 9 -22 8 -7 15 -9 15 -4 0 5 7 0 15 -10 8 -11
15 -15 15 -10 0 17 -47 57 -54 46z"/>
<path d="M6431 907 c-13 -21 -12 -21 5 -5 10 10 16 20 13 22 -3 3 -11 -5 -18
-17z"/>
<path d="M6640 925 c0 -2 6 -8 13 -14 10 -8 14 -7 14 2 0 8 -6 14 -14 14 -7 0
-13 -1 -13 -2z"/>
<path d="M6560 895 c-7 -8 -16 -13 -20 -10 -4 2 -16 -5 -26 -18 -19 -22 -19
-22 2 -4 11 9 23 15 26 12 3 -3 13 4 23 15 10 11 16 20 13 20 -3 0 -11 -7 -18
-15z"/>
<path d="M6593 903 c4 -3 -1 -16 -10 -27 -18 -21 -18 -21 5 -2 24 21 29 36 10
36 -6 0 -8 -3 -5 -7z"/>
<path d="M6355 889 c-4 -6 -5 -12 -2 -15 2 -3 7 2 10 11 7 17 1 20 -8 4z"/>
<path d="M6444 878 c-12 -14 -13 -18 -3 -10 9 6 18 10 21 7 2 -3 5 2 5 10 0
19 0 19 -23 -7z"/>
<path d="M6646 878 c4 -5 9 -7 12 -4 3 3 15 -2 26 -11 21 -18 21 -18 3 3 -16
20 -52 30 -41 12z"/>
<path d="M5740 871 c-8 -6 -18 -7 -23 -4 -5 3 -1 -6 8 -21 10 -15 20 -24 23
-21 3 3 14 -2 24 -12 10 -9 19 -13 19 -10 1 4 2 10 3 15 1 4 5 12 9 19 4 7 -2
18 -15 27 -26 18 -28 19 -48 7z m8 -36 c-3 -3 -9 2 -12 12 -6 14 -5 15 5 6 7
-7 10 -15 7 -18z m43 1 c-6 -7 -7 -17 -3 -22 4 -4 -1 -2 -11 5 -13 10 -15 17
-6 27 6 8 15 11 21 8 5 -4 5 -11 -1 -18z"/>
<path d="M6402 858 c-15 -15 -15 -28 0 -28 6 0 8 3 5 7 -4 3 -2 12 4 20 14 16
7 17 -9 1z"/>
<path d="M6455 849 c-4 -6 -5 -12 -2 -15 2 -3 7 2 10 11 7 17 1 20 -8 4z"/>
<path d="M6535 849 c-4 -6 -5 -12 -2 -15 2 -3 7 2 10 11 7 17 1 20 -8 4z"/>
<path d="M6654 846 c1 -8 5 -18 8 -22 4 -3 5 1 4 10 -1 8 -5 18 -8 22 -4 3 -5
-1 -4 -10z"/>
<path d="M6425 839 c-4 -6 -5 -12 -2 -15 2 -3 7 2 10 11 7 17 1 20 -8 4z"/>
<path d="M6595 822 c3 -3 -1 -12 -7 -21 -8 -10 -4 -9 10 3 26 23 26 23 7 23
-8 0 -13 -3 -10 -5z"/>
<path d="M6463 804 c9 -11 15 -23 12 -26 -3 -2 2 -5 10 -5 10 0 12 4 5 12 -5
7 -6 16 -2 21 4 5 3 6 -2 2 -5 -4 -16 -2 -25 4 -12 10 -12 7 2 -8z"/>
<path d="M6542 804 c10 -10 20 -16 22 -13 3 3 -5 11 -17 18 -21 13 -21 12 -5
-5z"/>
<path d="M6733 807 c0 -8 6 -14 14 -14 9 0 10 4 2 14 -6 7 -12 13 -14 13 -1 0
-2 -6 -2 -13z"/>
<path d="M5485 801 c-3 -5 -2 -12 3 -15 5 -3 9 1 9 9 0 17 -3 19 -12 6z"/>
<path d="M6347 799 c7 -9 11 -18 8 -21 -3 -3 5 -13 17 -24 23 -19 23 -19 5 2
-9 11 -15 23 -12 26 3 3 -3 11 -12 19 -16 12 -17 12 -6 -2z"/>
<path d="M6429 797 c6 -8 9 -16 6 -19 -3 -2 2 -5 10 -5 13 0 13 3 -2 19 -19
21 -31 25 -14 5z"/>
<path d="M6509 797 c6 -8 9 -16 6 -19 -3 -2 2 -5 10 -5 13 0 13 3 -2 19 -19
21 -31 25 -14 5z"/>
<path d="M6619 793 c-13 -17 -13 -17 6 -3 11 8 22 16 24 17 2 2 0 3 -6 3 -6 0
-17 -8 -24 -17z"/>
<path d="M6384 782 c4 -3 14 -7 22 -8 9 -1 13 0 10 4 -4 3 -14 7 -22 8 -9 1
-13 0 -10 -4z"/>
<path d="M6640 774 c-11 -12 -10 -18 5 -32 18 -16 18 -16 6 1 -11 14 -11 20
-1 32 7 8 10 15 7 15 -2 0 -10 -7 -17 -16z"/>
<path d="M6670 786 c0 -2 7 -7 16 -10 8 -3 12 -2 9 4 -6 10 -25 14 -25 6z"/>
<path d="M6571 767 c-8 -10 -7 -14 2 -14 8 0 14 6 14 14 0 7 -1 13 -2 13 -2 0
-8 -6 -14 -13z"/>
<path d="M6354 732 c11 -12 21 -20 24 -17 3 3 15 -3 26 -12 21 -18 21 -18 2 5
-11 12 -21 20 -24 17 -3 -3 -15 3 -26 12 -21 18 -21 18 -2 -5z"/>
<path d="M6446 725 c-11 -8 -15 -15 -9 -15 6 0 16 7 23 15 16 19 11 19 -14 0z"/>
<path d="M6529 724 c-13 -16 -25 -64 -13 -52 3 3 6 13 8 21 1 8 8 22 15 31 7
9 11 16 8 16 -2 0 -11 -7 -18 -16z"/>
<path d="M6562 717 c-17 -18 -19 -24 -7 -24 8 0 13 3 10 5 -3 3 2 14 12 24 24
27 10 22 -15 -5z"/>
<path d="M6623 724 c13 -16 15 -23 6 -26 -9 -3 -9 -6 2 -10 23 -9 19 19 -5 39
-21 18 -21 18 -3 -3z"/>
<path d="M6684 722 c23 -26 23 -26 23 -7 0 8 -3 13 -5 10 -3 -3 -12 1 -21 7
-10 8 -9 4 3 -10z"/>
<path d="M6591 707 c-8 -10 -7 -14 2 -14 8 0 14 6 14 14 0 7 -1 13 -2 13 -2 0
-8 -6 -14 -13z"/>
<path d="M6465 699 c-3 -4 2 -6 10 -5 21 3 28 13 10 13 -9 0 -18 -4 -20 -8z"/>
<path d="M6668 699 c6 -9 8 -20 4 -25 -4 -5 -3 -6 2 -2 5 4 14 3 21 -2 8 -7
12 -5 12 5 0 8 -3 13 -5 10 -3 -3 -15 3 -26 12 -15 14 -18 14 -8 2z"/>
<path d="M5789 694 c-1 -5 -1 -12 -1 -16 2 -14 -26 -29 -33 -18 -4 7 -19 2
-41 -15 -37 -28 -55 -26 -49 6 4 17 2 19 -11 9 -11 -10 -18 -9 -33 4 -12 11
-21 13 -25 7 -4 -5 -2 -12 2 -15 12 -7 9 -61 -4 -61 -5 0 -15 -4 -22 -9 -7 -4
-19 -2 -28 5 -9 8 -14 8 -12 1 2 -6 -6 -17 -17 -26 l-20 -15 20 2 c13 1 19 -3
17 -12 -3 -12 0 -12 13 -1 13 11 19 10 35 -5 11 -10 17 -21 15 -25 -6 -10 21
-21 29 -13 3 3 -2 12 -12 20 -9 8 -11 11 -3 7 10 -5 12 -3 6 6 -6 9 -4 11 5 5
9 -6 11 -4 4 6 -6 10 0 9 18 -3 19 -13 29 -15 34 -6 4 6 3 8 -4 4 -16 -10 -8
24 9 35 10 8 8 9 -8 4 -13 -3 -23 -2 -23 3 0 6 11 9 25 8 13 -2 22 0 20 5 -6
9 16 6 35 -6 12 -7 13 -6 4 6 -5 8 -9 20 -8 27 1 6 2 17 3 24 0 6 7 3 15 -8
14 -18 15 -18 22 -1 6 17 7 17 19 0 7 -10 12 -21 11 -24 0 -3 5 -13 13 -22 12
-15 9 -21 -11 -19 -3 1 -9 -5 -12 -13 -3 -10 0 -12 12 -9 11 4 13 3 5 -3 -8
-6 -9 -14 -3 -23 8 -12 10 -11 11 5 1 11 1 23 0 28 0 4 4 7 10 7 6 0 9 7 6 15
-4 8 -2 17 3 20 4 3 7 13 5 23 -1 9 2 23 8 30 10 12 -10 48 -21 37 -3 -3 -11
0 -19 6 -7 6 -14 8 -14 3z m44 -46 c-6 -7 -9 -21 -8 -30 2 -10 -2 -21 -8 -25
-7 -3 -9 -3 -5 2 4 4 -2 19 -13 33 -23 30 -10 54 17 31 16 -13 17 -12 10 6 -6
16 -5 17 5 8 8 -8 9 -16 2 -25z m-208 -10 c0 -6 6 -13 14 -16 8 -3 11 0 7 6
-3 6 -1 14 5 18 7 4 9 3 6 -3 -4 -6 0 -16 8 -23 13 -10 19 -10 34 4 18 17 19
17 17 0 -2 -9 -10 -19 -19 -21 -9 -2 -25 -5 -34 -7 -10 -3 -21 -5 -26 -5 -4
-1 0 -13 10 -27 17 -27 17 -27 -4 -16 -16 9 -24 8 -33 -3 -11 -14 -15 -14 -31
1 -14 13 -16 20 -8 30 6 8 15 12 19 9 21 -13 34 45 16 75 -7 12 -7 13 5 2 8
-7 14 -18 14 -24z m-78 -73 c0 -8 -4 -12 -9 -9 -5 3 -6 10 -3 15 9 13 12 11
12 -6z"/>
<path d="M5800 653 c5 -2 8 -9 5 -13 -3 -5 -1 -11 4 -14 5 -4 8 2 7 11 -2 9
-8 18 -15 19 -6 1 -7 0 -1 -3z"/>
<path d="M5625 610 c5 -8 -34 -47 -41 -42 -12 7 -15 0 -4 -13 12 -14 15 -14
30 0 9 8 21 12 25 8 5 -5 4 0 -3 9 -11 14 -10 18 6 27 11 6 22 8 26 6 3 -3 4
-2 1 2 -7 9 -45 12 -40 3z m-5 -34 c0 -2 -6 -9 -14 -15 -11 -9 -16 -9 -22 0
-4 7 -3 9 4 5 6 -3 13 -2 17 4 6 10 15 14 15 6z"/>
<path d="M6296 659 c4 -8 30 -6 38 2 3 3 -5 5 -19 5 -13 0 -22 -3 -19 -7z"/>
<path d="M6597 648 c19 -21 31 -25 14 -5 -6 8 -9 16 -6 19 3 2 -2 5 -10 5 -13
0 -13 -3 2 -19z"/>
<path d="M6624 662 c4 -3 14 -7 22 -8 9 -1 13 0 10 4 -4 3 -14 7 -22 8 -9 1
-13 0 -10 -4z"/>
<path d="M6493 645 c0 -8 3 -13 5 -10 3 3 12 -1 21 -7 10 -8 9 -4 -3 10 -23
26 -23 26 -23 7z"/>
<path d="M6684 642 c23 -26 23 -26 23 -7 0 8 -3 13 -5 10 -3 -3 -12 1 -21 7
-10 8 -9 4 3 -10z"/>
<path d="M6339 633 c-13 -17 -13 -17 6 -3 11 8 22 16 24 17 2 2 0 3 -6 3 -6 0
-17 -8 -24 -17z"/>
<path d="M6406 638 c4 -5 9 -7 12 -4 3 3 15 -2 26 -11 21 -18 21 -18 3 3 -16
20 -52 30 -41 12z"/>
<path d="M6551 647 c2 -1 13 -9 24 -17 19 -14 19 -14 6 3 -7 9 -18 17 -24 17
-6 0 -8 -1 -6 -3z"/>
<path d="M6637 629 c7 -7 15 -10 18 -7 3 3 -2 9 -12 12 -14 6 -15 5 -6 -5z"/>
<path d="M5733 619 c2 -8 6 -19 10 -26 4 -6 3 -14 -2 -17 -5 -4 -12 -2 -16 4
-4 6 -15 3 -30 -7 -14 -11 -19 -21 -12 -25 7 -4 7 -12 -3 -23 -9 -11 -16 -13
-24 -5 -14 14 -29 12 -23 -3 3 -8 -6 -27 -20 -43 -13 -16 -21 -23 -17 -15 5
10 3 12 -6 6 -9 -5 -11 -4 -6 4 4 6 12 9 17 6 5 -4 9 -2 9 3 0 5 -9 12 -19 15
-13 3 -18 0 -15 -8 3 -7 1 -16 -5 -19 -6 -4 -7 -14 -4 -22 5 -13 8 -13 15 -2
7 10 8 8 4 -5 -3 -10 -2 -15 4 -12 5 3 7 -4 5 -16 -4 -20 -3 -20 13 -7 9 9 23
13 31 10 8 -2 11 0 7 6 -3 6 -1 14 5 18 7 4 9 3 5 -4 -4 -7 1 -10 14 -7 12 2
25 -4 34 -16 8 -12 17 -16 20 -11 3 6 0 13 -6 16 -7 3 -1 3 15 1 27 -4 38 9
15 18 -10 3 -10 7 -1 17 8 9 9 19 3 30 -7 13 -5 22 5 30 8 7 12 17 8 23 -3 5
-1 7 5 4 11 -8 11 -25 -1 -44 -5 -7 -5 -19 0 -25 10 -16 11 -68 2 -62 -12 7
-28 -25 -31 -63 -1 -7 -6 -9 -11 -6 -6 4 -7 1 -2 -7 13 -22 15 -81 1 -73 -16
11 -37 13 -31 3 3 -4 -3 -16 -13 -27 -9 -10 -12 -12 -7 -3 9 13 8 13 -9 0 -29
-23 -42 -20 -42 11 0 15 3 26 8 23 4 -3 5 2 1 12 -5 15 -7 15 -15 0 -5 -9 -13
-14 -18 -11 -5 3 -11 1 -15 -5 -3 -5 1 -10 9 -10 9 0 16 -4 16 -10 0 -12 -22
-9 -33 5 -5 6 -7 3 -3 -7 3 -10 1 -20 -4 -23 -6 -4 -10 -12 -10 -18 0 -7 4 -6
10 3 5 8 10 10 10 4 0 -5 -3 -14 -7 -20 -5 -5 0 -1 10 9 9 11 17 15 17 10 0
-15 -36 -44 -43 -36 -4 3 -7 1 -7 -4 0 -6 5 -13 12 -15 7 -3 5 -7 -6 -11 -12
-5 -15 -3 -10 6 6 9 5 9 -8 0 -8 -7 -19 -9 -23 -5 -5 4 -5 1 -1 -6 4 -7 3 -19
-4 -27 -8 -10 -8 -15 1 -21 8 -5 9 -3 4 7 -7 11 -5 11 11 -1 18 -14 18 -14 4
5 -14 19 -14 19 4 5 11 -8 17 -10 14 -5 -4 6 2 11 12 11 10 0 16 -5 12 -11 -3
-5 3 -3 14 5 18 14 18 14 4 -4 -8 -11 -10 -17 -4 -13 16 9 38 -19 28 -35 -4
-7 -4 -10 1 -6 4 4 15 2 24 -5 9 -6 3 6 -13 28 -18 24 -22 33 -10 22 23 -19
34 -22 34 -7 0 6 -6 9 -12 8 -8 -2 -13 8 -12 25 0 24 -2 26 -11 13 -7 -9 -15
-13 -18 -10 -3 4 2 14 11 23 11 10 12 12 2 6 -10 -7 -10 -3 3 12 13 15 28 21
50 19 30 -2 32 -5 32 -40 0 -21 -3 -40 -8 -43 -4 -2 -4 -10 0 -16 4 -7 0 -6
-10 2 -20 16 -23 2 -4 -18 10 -11 9 -12 -2 -6 -10 6 -12 4 -6 -6 7 -11 5 -11
-11 1 -19 14 -19 14 0 -8 11 -12 16 -23 13 -23 -26 -5 -34 -4 -47 7 -18 14
-52 15 -43 1 3 -6 1 -7 -6 -3 -6 4 -9 12 -6 17 4 5 1 9 -5 9 -7 0 -10 -7 -6
-17 5 -15 4 -15 -9 1 -9 12 -15 15 -15 7 0 -8 -6 -11 -16 -7 -8 3 -13 2 -10
-2 3 -5 -1 -9 -8 -9 -8 0 -12 7 -9 14 3 8 12 12 21 8 12 -4 13 -3 3 9 -13 15
-45 11 -35 -5 2 -5 1 -17 -5 -26 -8 -17 -1 -18 102 -18 79 0 112 4 114 13 3 6
0 12 -7 12 -6 0 -8 5 -5 10 4 6 10 8 14 6 4 -3 7 5 6 17 -1 12 3 25 8 29 6 3
10 22 10 42 0 19 4 33 9 30 4 -3 8 0 8 6 0 7 -7 10 -15 7 -8 -4 -17 -2 -20 4
-4 5 -12 6 -18 2 -7 -3 -3 4 8 17 11 13 14 20 7 16 -11 -7 -11 -4 -1 11 12 20
39 27 39 11 0 -4 -7 -8 -16 -8 -8 0 -12 -5 -9 -10 4 -6 12 -7 18 -3 7 4 6 0
-2 -10 -8 -10 -9 -17 -3 -17 11 0 32 62 35 101 1 11 5 19 10 19 4 0 5 5 1 11
-4 8 -9 7 -15 -2 -6 -10 -9 -10 -9 -2 0 7 7 16 15 20 8 5 16 20 19 33 2 14 5
25 6 25 1 0 4 13 6 30 3 16 11 36 17 44 9 12 9 13 0 7 -7 -4 -13 -2 -13 3 0 6
6 11 13 11 8 0 8 3 1 8 -10 7 -25 35 -30 60 -2 11 10 17 30 13 5 -1 4 5 -4 13
-7 9 -9 16 -5 16 4 0 2 7 -5 15 -9 10 -16 12 -25 5 -7 -6 -15 -6 -23 2 -8 8
-10 7 -9 -3z m53 -11 c5 -7 3 -8 -6 -3 -10 6 -12 4 -7 -9 4 -10 1 -19 -9 -23
-13 -5 -13 -7 -2 -14 11 -7 11 -9 -1 -9 -7 0 -11 -6 -8 -14 3 -8 -1 -20 -8
-26 -11 -9 -12 -17 -5 -30 7 -13 7 -21 -1 -25 -6 -4 -8 -13 -6 -19 4 -10 -19
-14 -40 -7 -2 1 -6 1 -9 0 -4 0 -10 5 -14 12 -6 9 -15 6 -38 -9 -26 -19 -29
-19 -28 -4 0 9 11 31 23 48 12 17 20 34 18 38 -3 3 1 2 7 -4 8 -7 20 -2 40 17
31 29 39 54 11 32 -17 -13 -17 -12 -4 4 14 17 16 17 27 3 12 -17 29 -22 19 -6
-3 6 1 13 10 16 14 6 14 8 -2 21 -10 8 -13 12 -6 9 6 -4 14 -2 18 4 8 13 12
13 21 -2z m0 -128 c0 -12 -4 -16 -9 -11 -5 5 -6 14 -3 20 10 15 12 14 12 -9z
m-21 -102 c-3 -12 -10 -26 -16 -32 -8 -8 -8 -5 0 12 6 12 9 22 6 22 -4 0 -3 5
0 10 10 16 14 11 10 -12z m-150 -158 c-2 -3 0 -12 6 -20 5 -8 9 -10 9 -4 0 5
11 10 25 10 18 0 22 -3 14 -12 -6 -7 -16 -11 -23 -8 -7 3 -29 -14 -50 -37 -20
-23 -39 -39 -43 -35 -4 3 2 13 13 21 10 8 15 15 10 15 -5 0 1 11 13 24 22 24
21 53 -1 40 -6 -4 -8 -3 -5 3 3 5 13 10 21 10 8 0 13 -3 11 -7z m-71 -198 c2
-4 -5 -9 -17 -9 -17 -2 -19 0 -7 7 18 12 18 12 24 2z m70 0 c2 -4 -4 -8 -14
-8 -10 0 -16 4 -14 8 7 10 21 10 28 0z"/>
<path d="M5695 520 c-15 -16 -31 -28 -35 -27 -5 1 -7 -1 -6 -5 0 -4 -9 -15
-21 -23 -13 -9 -23 -22 -22 -28 0 -9 2 -8 6 1 2 6 9 10 14 6 5 -3 12 2 15 10
5 14 10 13 34 -4 26 -18 28 -19 42 -2 9 9 13 23 11 30 -6 15 -24 16 -20 1 1
-6 -8 -13 -20 -15 l-22 -4 22 23 c12 13 25 22 28 20 4 -1 12 3 18 11 8 10 8
16 -2 24 -11 9 -20 5 -42 -18z m36 6 c-1 -3 -4 -6 -7 -5 -3 1 -18 -11 -34 -26
-20 -19 -30 -23 -35 -14 -5 7 -4 10 2 6 5 -4 23 7 38 23 26 27 38 32 36 16z
m-1 -60 c0 -2 -6 -9 -14 -15 -11 -9 -16 -9 -22 0 -4 7 -3 9 4 5 6 -3 13 -2 17
4 6 10 15 14 15 6z"/>
<path d="M5594 168 l-19 -23 23 19 c12 11 22 21 22 23 0 8 -8 2 -26 -19z"/>
<path d="M6548 619 c6 -9 8 -20 4 -25 -4 -5 -3 -6 2 -2 5 4 14 3 21 -2 8 -7
12 -5 12 5 0 8 -3 13 -5 10 -3 -3 -15 3 -26 12 -15 14 -18 14 -8 2z"/>
<path d="M6414 606 c1 -8 5 -18 8 -22 4 -3 5 1 4 10 -1 8 -5 18 -8 22 -4 3 -5
-1 -4 -10z"/>
<path d="M6493 605 c0 -8 3 -13 5 -10 3 3 15 -3 26 -12 15 -14 18 -14 8 -2 -6
9 -8 20 -4 25 4 5 3 6 -2 2 -5 -4 -14 -3 -21 2 -8 7 -12 5 -12 -5z"/>
<path d="M6659 593 c-13 -16 -12 -17 4 -4 9 7 17 15 17 17 0 8 -8 3 -21 -13z"/>
<path d="M6343 564 c9 -11 14 -23 11 -26 -3 -3 -1 -8 4 -12 18 -11 8 25 -12
41 -21 18 -21 18 -3 -3z"/>
<path d="M6493 565 c0 -8 3 -13 5 -10 3 3 12 -1 21 -7 10 -8 9 -4 -3 10 -23
26 -23 26 -23 7z"/>
<path d="M6670 566 c0 -2 7 -6 15 -10 8 -3 15 -1 15 4 0 6 -7 10 -15 10 -8 0
-15 -2 -15 -4z"/>
<path d="M6304 542 c4 -3 14 -7 22 -8 9 -1 13 0 10 4 -4 3 -14 7 -22 8 -9 1
-13 0 -10 -4z"/>
<path d="M6390 536 c7 -7 13 -7 20 0 6 6 3 10 -10 10 -13 0 -16 -4 -10 -10z"/>
<path d="M6546 538 c3 -5 10 -6 15 -3 13 9 11 12 -6 12 -8 0 -12 -4 -9 -9z"/>
<path d="M6669 537 c6 -8 7 -18 3 -22 -4 -5 -1 -5 6 -1 10 6 10 11 1 22 -6 8
-14 14 -16 14 -3 0 0 -6 6 -13z"/>
<path d="M6459 538 c-5 -18 -6 -38 -1 -34 7 8 12 36 6 36 -2 0 -4 -1 -5 -2z"/>
<path d="M6496 527 c3 -10 9 -15 12 -12 3 3 0 11 -7 18 -10 9 -11 8 -5 -6z"/>
<path d="M6557 518 c-6 -3 11 -5 37 -3 25 1 49 4 51 7 8 8 -75 4 -88 -4z"/>
<path d="M6409 483 c-13 -16 -12 -17 4 -4 16 13 21 21 13 21 -2 0 -10 -8 -17
-17z"/>
<path d="M6495 490 c-4 -6 -12 -7 -18 -4 -7 4 -9 4 -5 -1 4 -4 3 -13 -2 -20
-7 -8 -5 -12 5 -12 8 0 13 3 10 5 -3 3 2 14 12 24 9 10 13 18 10 18 -3 0 -9
-5 -12 -10z"/>
<path d="M6530 496 c0 -2 8 -10 18 -17 15 -13 16 -12 3 4 -13 16 -21 21 -21
13z"/>
<path d="M6609 484 c-22 -26 -19 -71 5 -91 21 -18 21 -18 5 2 -19 24 -19 66 0
88 7 10 11 17 8 17 -2 0 -11 -7 -18 -16z"/>
<path d="M6250 478 c0 -6 3 -8 7 -5 3 4 16 -1 27 -10 21 -18 21 -18 2 5 -21
24 -36 29 -36 10z"/>
<path d="M6351 467 c-13 -21 -12 -21 5 -5 10 10 16 20 13 22 -3 3 -11 -5 -18
-17z"/>
<path d="M6437 472 c-15 -16 -15 -19 -2 -19 8 0 13 3 10 5 -3 3 0 11 6 19 17
20 5 16 -14 -5z"/>
<path d="M5534 471 c7 -11 -42 -45 -67 -47 -10 -1 -20 3 -23 8 -7 10 -59 -29
-59 -45 0 -7 -8 -11 -18 -9 -9 2 -17 -2 -17 -8 0 -20 -2 -25 -12 -38 -6 -7 -8
-15 -5 -19 4 -3 2 -12 -5 -20 -6 -7 -8 -16 -5 -20 4 -3 2 -12 -5 -20 -17 -21
0 -29 20 -8 9 10 11 14 3 10 -9 -5 -7 1 4 19 10 14 13 26 9 26 -12 1 27 24 44
26 6 1 12 -2 12 -7 0 -6 5 -7 11 -3 8 5 6 10 -5 16 -9 5 -13 14 -10 20 4 6 0
15 -7 20 -11 8 -10 9 3 4 10 -3 20 -1 23 4 4 6 1 10 -4 10 -6 0 -11 5 -11 12
0 6 8 4 19 -6 11 -10 17 -25 14 -34 -4 -14 -3 -14 5 -3 18 25 39 21 36 -5 -1
-15 2 -22 8 -18 7 4 8 2 4 -5 -4 -6 -12 -9 -17 -6 -5 4 -9 1 -9 -4 0 -6 6 -11
13 -11 9 0 9 -2 0 -8 -7 -4 -9 -13 -4 -21 6 -9 10 -6 15 11 l6 23 16 -25 c8
-14 13 -17 10 -7 -3 10 -2 16 2 13 4 -2 8 4 9 14 1 11 -3 22 -8 25 -5 4 -7 11
-3 16 3 5 10 7 15 4 5 -4 9 -1 9 5 0 7 -7 9 -17 6 -17 -7 -17 -6 -1 11 15 14
20 15 30 4 10 -11 10 -12 1 -7 -9 5 -11 2 -6 -9 5 -13 7 -14 14 -3 7 10 9 10
9 -2 0 -13 1 -13 10 0 5 8 10 11 11 5 0 -5 2 -21 5 -35 3 -20 2 -22 -6 -10 -9
12 -10 12 -8 -5 2 -15 -3 -20 -21 -20 -13 0 -26 -7 -28 -15 -4 -13 -3 -13 6 0
8 12 10 11 8 -7 -1 -17 -4 -19 -14 -11 -16 13 -17 -4 -2 -19 8 -8 8 -13 0 -17
-8 -5 -8 -13 -1 -26 9 -17 7 -18 -22 -15 -24 4 -29 2 -20 -7 7 -7 12 -17 12
-23 0 -5 -5 -3 -10 5 -6 10 -10 11 -10 3 0 -7 -5 -13 -11 -13 -8 0 -8 4 0 14
9 11 9 16 0 22 -8 4 -9 3 -5 -5 4 -6 4 -10 -1 -9 -4 1 -18 -3 -29 -10 -12 -6
-25 -8 -29 -4 -5 4 -5 1 0 -7 5 -10 4 -12 -4 -7 -6 4 -9 12 -6 17 4 5 1 9 -4
9 -13 0 -14 -12 -3 -26 4 -5 -7 7 -25 26 -25 28 -29 38 -20 50 11 13 10 13 -8
0 -19 -14 -19 -14 -5 4 15 19 14 19 -12 2 -17 -11 -25 -24 -23 -37 2 -10 0
-19 -5 -19 -5 0 -7 -9 -5 -20 2 -11 -1 -20 -7 -20 -5 0 -8 -6 -5 -14 3 -8 3
-17 -1 -21 -4 -4 -8 -11 -8 -16 -1 -5 -3 -11 -4 -14 -1 -3 -3 -13 -4 -22 -1
-10 -4 -23 -8 -28 -4 -7 22 -10 77 -10 76 0 82 1 74 18 -6 9 -7 21 -5 26 10
16 -22 20 -35 5 -10 -12 -9 -13 3 -9 9 4 18 0 21 -8 3 -7 -1 -14 -9 -14 -7 0
-11 4 -8 9 3 4 -2 5 -10 2 -10 -4 -16 -1 -16 7 0 8 -6 5 -15 -7 -13 -16 -14
-16 -9 -1 4 10 1 17 -6 17 -6 0 -9 -4 -5 -9 3 -5 0 -13 -6 -17 -8 -5 -9 -3 -4
6 5 8 4 11 -1 7 -6 -3 -10 5 -10 18 0 13 3 22 7 19 10 -6 6 17 -6 36 -8 13 -6
13 8 2 9 -8 22 -10 28 -6 8 5 9 3 4 -7 -8 -12 -6 -12 8 0 16 12 22 8 18 -12
-1 -5 3 -6 9 -2 8 5 8 11 0 20 -7 8 -8 20 -4 27 4 7 4 10 -1 6 -4 -4 -15 -2
-24 4 -13 10 -14 10 -3 -2 6 -8 12 -19 12 -24 0 -6 -7 0 -16 12 -9 13 -21 19
-27 15 -7 -3 -4 3 6 14 13 15 15 22 6 25 -9 3 -8 6 3 10 10 4 23 -2 35 -15 18
-21 18 -21 -2 -7 -19 14 -19 14 -5 -4 12 -16 12 -18 1 -11 -9 5 -12 4 -7 -3 4
-6 13 -9 20 -6 17 6 40 -22 30 -37 -5 -8 -3 -9 6 -4 9 6 11 4 5 -5 -5 -7 -4
-11 1 -7 5 3 18 -1 29 -9 12 -9 14 -14 5 -14 -9 0 -7 -5 6 -15 19 -15 19 -15
0 -30 -11 -8 -16 -18 -13 -22 10 -9 37 29 32 44 -7 20 31 35 45 18 6 -7 21
-12 32 -10 12 3 27 0 33 -5 6 -5 17 -5 25 0 12 7 12 12 2 22 -6 6 -12 8 -12 4
0 -5 -7 -3 -16 5 -10 8 -18 9 -22 2 -11 -16 -39 -11 -64 11 -13 12 -19 18 -13
14 15 -9 37 6 33 22 -2 8 2 14 9 15 6 0 15 4 20 9 5 5 2 6 -7 2 -8 -4 -6 0 5
9 11 9 19 21 17 27 -1 5 2 16 8 22 5 7 7 16 4 19 -4 3 3 18 15 33 11 15 21 21
21 13 0 -8 5 -6 14 6 13 18 14 18 26 -4 10 -19 9 -25 -1 -32 -9 -5 -10 -11 -4
-18 7 -6 18 -3 34 10 13 10 20 19 17 19 -4 0 -1 10 5 22 11 20 12 21 25 4 12
-17 13 -17 11 3 -1 11 -4 21 -8 21 -10 0 -6 20 9 48 7 12 10 22 6 22 -3 0 0 8
7 18 13 16 13 16 -6 0 -20 -16 -48 -11 -46 8 1 5 -7 9 -16 9 -12 0 -18 -8 -19
-22 -1 -23 7 -29 19 -16 4 3 2 11 -3 18 -7 8 -5 12 4 12 8 0 13 -8 11 -18 -2
-10 0 -21 5 -24 5 -3 7 -14 5 -25 -2 -12 0 -18 6 -14 6 3 5 -3 -2 -14 -10 -16
-16 -18 -27 -10 -7 6 -11 17 -8 25 4 9 1 11 -6 7 -6 -4 -8 -3 -5 2 3 6 1 16
-5 24 -8 12 -8 11 -3 -5 5 -16 4 -18 -6 -7 -10 9 -10 15 -1 24 8 8 9 15 0 25
-9 11 -14 11 -29 -3 -11 -10 -20 -14 -20 -11 -4 18 -7 25 -28 60 -13 20 -25
37 -28 37 -2 0 -2 -4 1 -9z m37 -68 c0 -5 6 -15 12 -23 10 -13 10 -13 -5 -1
-10 7 -15 17 -12 22 10 17 -13 9 -31 -11 -22 -24 -27 -47 -14 -56 16 -9 10
-23 -10 -21 -14 1 -17 5 -11 12 6 7 5 16 -3 24 -9 9 -9 14 3 21 15 10 13 11
-28 14 -24 1 -53 26 -46 37 3 5 11 6 17 2 22 -14 45 -13 57 2 7 8 16 12 21 9
5 -3 9 0 9 5 0 12 39 -24 41 -36z m58 -29 c-9 -11 -4 -22 21 -54 22 -27 29
-45 23 -51 -7 -7 -16 -1 -27 16 -15 23 -20 25 -34 13 -15 -11 -15 -11 -5 3 12
14 10 55 -2 67 -8 8 16 32 27 26 5 -3 4 -11 -3 -20z m90 -16 c-5 -10 -11 -18
-12 -18 -2 0 -3 8 -3 18 0 10 6 19 13 19 8 0 9 -6 2 -19z m-323 -11 c1 -10 -2
-15 -6 -12 -5 3 -11 1 -15 -5 -4 -6 -11 -8 -16 -5 -5 4 -9 1 -9 -6 0 -7 -3
-10 -6 -6 -3 3 -2 12 2 19 5 7 9 16 10 21 3 14 4 15 21 13 9 -2 17 -10 19 -19z
m-53 -62 c-3 -9 -8 -14 -10 -11 -3 3 -2 9 2 15 9 16 15 13 8 -4z m228 -18
c-10 -9 -11 -8 -5 6 3 10 9 15 12 12 3 -3 0 -11 -7 -18z m-102 -104 c-4 -26 2
-35 15 -24 13 11 15 3 7 -27 -1 -1 -12 5 -27 14 -18 12 -28 14 -36 6 -12 -12
-2 -32 15 -31 9 0 9 2 0 6 -7 2 -13 9 -13 14 0 16 14 9 32 -15 16 -21 16 -25
2 -37 -8 -7 -14 -8 -12 -2 2 6 -8 20 -22 32 l-25 21 30 25 c33 27 36 29 34 18z
m-142 -49 c-9 -9 -28 6 -21 18 4 6 10 6 17 -1 6 -6 8 -13 4 -17z m268 -46 c5
4 5 1 1 -6 -6 -10 -11 -10 -22 -1 -8 6 -14 14 -14 16 0 3 6 0 13 -6 8 -6 18
-7 22 -3z m-310 -15 c-1 -10 1 -23 6 -29 5 -6 4 -11 -5 -11 -10 0 -15 35 -7
55 4 10 9 -1 6 -15z m85 -38 c0 -2 -9 -3 -19 -2 -11 0 -18 5 -15 9 4 6 34 0
34 -7z"/>
<path d="M5499 413 c-19 -23 10 -37 33 -16 10 9 16 19 13 22 -12 11 -35 8 -46
-6z m30 -10 c-6 -7 -15 -10 -20 -7 -13 8 -3 21 15 21 12 0 13 -4 5 -14z"/>
<path d="M5437 410 c7 -8 20 -15 29 -16 9 -1 13 1 9 4 -4 4 -10 7 -13 7 -4 0
-14 4 -22 9 -12 7 -13 6 -3 -4z"/>
<path d="M5620 339 c0 -3 11 -20 25 -39 14 -19 25 -30 25 -24 -1 10 -50 73
-50 63z"/>
<path d="M5363 343 c0 -9 4 -10 14 -2 7 6 13 12 13 14 0 1 -6 2 -13 2 -8 0
-14 -6 -14 -14z"/>
<path d="M6514 471 c4 -5 0 -11 -6 -14 -7 -3 -3 -4 9 -4 17 1 19 4 11 14 -12
15 -22 18 -14 4z"/>
<path d="M6629 463 c-13 -16 -12 -17 4 -4 16 13 21 21 13 21 -2 0 -10 -8 -17
-17z"/>
<path d="M6560 460 c-9 -6 -10 -10 -3 -10 6 0 15 5 18 10 8 12 4 12 -15 0z"/>
<path d="M5755 451 c-3 -5 -2 -12 3 -15 5 -3 9 1 9 9 0 17 -3 19 -12 6z"/>
<path d="M6253 445 c0 -8 3 -13 5 -10 3 3 15 -3 26 -12 15 -13 14 -10 -3 10
-29 32 -28 31 -28 12z"/>
<path d="M6365 440 c-10 -11 -14 -20 -10 -20 4 0 0 -10 -11 -22 l-19 -23 23
19 c12 11 20 21 17 24 -3 3 2 14 12 24 9 10 14 18 11 18 -3 0 -13 -9 -23 -20z"/>
<path d="M6654 449 c-3 -6 -2 -15 3 -20 5 -5 9 -1 9 11 0 23 -2 24 -12 9z"/>
<path d="M6389 423 c-13 -16 -12 -17 4 -4 9 7 17 15 17 17 0 8 -8 3 -21 -13z"/>
<path d="M6319 413 c-13 -16 -12 -17 4 -4 9 7 17 15 17 17 0 8 -8 3 -21 -13z"/>
<path d="M6631 413 c7 -12 15 -20 18 -17 3 2 -3 12 -13 22 -17 16 -18 16 -5
-5z"/>
<path d="M6253 405 c0 -8 3 -13 5 -10 3 3 12 -1 21 -7 10 -8 9 -4 -3 10 -23
26 -23 26 -23 7z"/>
<path d="M6447 402 c-20 -22 -21 -32 -5 -32 6 0 8 3 5 7 -4 3 0 15 10 25 9 10
14 18 11 18 -3 0 -12 -8 -21 -18z"/>
<path d="M6529 404 c-20 -24 -21 -50 -1 -65 15 -12 15 -12 5 1 -14 19 -12 42
6 64 7 9 11 16 8 16 -2 0 -11 -7 -18 -16z"/>
<path d="M6465 379 c-3 -4 2 -6 10 -5 21 3 28 13 10 13 -9 0 -18 -4 -20 -8z"/>
<path d="M5419 359 c-6 -12 -7 -19 -1 -15 14 8 23 -19 10 -32 -7 -7 -17 -8
-29 -1 -15 8 -21 4 -33 -20 -13 -25 -14 -30 -1 -35 8 -3 17 -1 20 4 4 6 1 10
-6 10 -8 0 -9 3 0 13 6 8 7 17 3 22 -4 4 3 3 15 -4 12 -6 25 -16 28 -21 10
-16 28 -12 21 5 -8 21 1 19 13 -3 7 -14 6 -18 -9 -19 -10 -1 -24 5 -31 13 -14
17 -29 18 -29 3 0 -5 4 -8 9 -4 5 3 12 1 15 -4 4 -5 2 -12 -4 -16 -6 -4 -8
-11 -5 -16 4 -5 1 -9 -4 -9 -6 0 -11 6 -11 13 0 8 -4 7 -10 -3 -6 -10 -10 -11
-10 -2 0 6 -5 12 -11 12 -8 0 -8 -4 0 -14 9 -10 9 -16 1 -21 -8 -5 -6 -13 6
-26 9 -10 21 -16 26 -13 5 3 15 0 23 -6 11 -9 19 -7 40 14 14 14 25 20 25 13
0 -8 3 -8 9 2 6 9 11 10 15 2 10 -16 29 -13 23 4 -4 8 -1 17 5 21 7 5 5 11 -6
20 -10 7 -17 15 -17 18 3 24 -1 27 -13 11 -13 -18 -14 -18 -24 1 -5 10 -12 24
-14 29 -1 6 -7 9 -13 7 -5 -1 0 5 12 15 15 12 20 23 14 31 -7 11 -9 10 -15 -3
-3 -9 -11 -13 -17 -10 -6 4 -8 13 -5 21 8 22 -2 17 -15 -7z m18 -64 c0 -8 -4
-12 -9 -9 -5 3 -6 10 -3 15 9 13 12 11 12 -6z m72 -32 c-4 -22 2 -33 14 -27 9
6 9 5 0 -8 -7 -8 -9 -19 -5 -24 4 -4 0 -4 -8 2 -21 15 -32 12 -58 -14 -25 -25
-45 -22 -35 6 6 16 5 16 -14 -1 -17 -14 -22 -15 -31 -4 -16 19 6 41 25 26 9
-8 13 -8 14 0 1 6 2 17 3 24 1 7 14 11 38 10 20 -1 40 2 43 7 7 12 15 13 14 3z"/>
<path d="M5425 215 c0 -34 10 -35 33 -4 7 10 21 16 32 14 13 -3 17 1 13 12 -4
10 -8 11 -13 3 -10 -15 -21 -15 -31 2 -7 11 -9 11 -9 -1 0 -10 -3 -11 -13 -3
-10 8 -13 3 -12 -23z m35 9 c0 -8 -19 -13 -24 -6 -3 5 1 9 9 9 8 0 15 -2 15
-3z"/>
<path d="M5376 211 c-4 -5 -2 -12 3 -15 5 -4 12 -2 15 3 4 5 2 12 -3 15 -5 4
-12 2 -15 -3z"/>
<path d="M6253 365 c0 -8 3 -13 5 -10 3 3 15 -3 26 -12 15 -14 18 -14 8 -2 -6
9 -8 20 -4 25 4 5 3 6 -2 2 -5 -4 -14 -3 -21 2 -8 7 -12 5 -12 -5z"/>
<path d="M5666 361 c-4 -5 -2 -12 3 -16 6 -3 8 -12 4 -20 -3 -8 -1 -15 4 -15
11 0 11 45 1 55 -3 4 -9 2 -12 -4z"/>
<path d="M6559 368 c-7 -25 -3 -40 14 -55 22 -18 22 -18 6 2 -9 11 -15 28 -14
38 3 13 -2 26 -6 15z"/>
<path d="M5541 333 c6 -7 8 -16 6 -21 -3 -4 5 -8 18 -8 13 0 21 4 18 8 -2 5 0
14 6 21 7 10 2 13 -24 13 -26 0 -31 -3 -24 -13z"/>
<path d="M6320 340 c-9 -6 -10 -10 -3 -10 6 0 15 5 18 10 8 12 4 12 -15 0z"/>
<path d="M6355 342 c3 -3 -1 -12 -7 -21 -8 -10 -4 -9 10 3 26 23 26 23 7 23
-8 0 -13 -3 -10 -5z"/>
<path d="M6597 328 c19 -21 31 -25 14 -5 -6 8 -9 16 -6 19 3 2 -2 5 -10 5 -13
0 -13 -3 2 -19z"/>
<path d="M6253 325 c0 -8 3 -13 5 -10 3 3 12 -1 21 -7 10 -8 9 -4 -3 10 -23
26 -23 26 -23 7z"/>
<path d="M6493 325 c0 -8 3 -13 5 -10 3 3 12 -1 21 -7 10 -8 9 -4 -3 10 -23
26 -23 26 -23 7z"/>
<path d="M6378 312 c-11 -15 -11 -15 2 -5 19 14 42 12 66 -7 18 -14 18 -14 2
6 -22 25 -53 28 -70 6z"/>
<path d="M6306 297 c3 -10 9 -15 12 -12 3 3 0 11 -7 18 -10 9 -11 8 -5 -6z"/>
<path d="M6551 293 c7 -12 15 -20 18 -17 3 2 -3 12 -13 22 -17 16 -18 16 -5
-5z"/>
<path d="M6254 280 c0 -13 4 -16 10 -10 7 7 7 13 0 20 -6 6 -10 3 -10 -10z"/>
<path d="M6339 298 c-5 -18 -6 -38 -1 -34 7 8 12 36 6 36 -2 0 -4 -1 -5 -2z"/>
<path d="M6410 296 c0 -2 8 -10 18 -17 15 -13 16 -12 3 4 -13 16 -21 21 -21
13z"/>
<path d="M6614 280 c0 -13 4 -16 10 -10 7 7 7 13 0 20 -6 6 -10 3 -10 -10z"/>
<path d="M6511 267 c-13 -21 -12 -21 5 -5 10 10 16 20 13 22 -3 3 -11 -5 -18
-17z"/>
<path d="M6280 255 c-7 -8 -16 -13 -20 -10 -5 3 -11 2 -14 -3 -10 -17 24 -8
41 10 9 10 14 18 11 18 -3 0 -11 -7 -18 -15z"/>
<path d="M6386 262 c-2 -4 4 -8 14 -8 10 0 16 4 14 8 -3 4 -9 8 -14 8 -5 0
-11 -4 -14 -8z"/>
<path d="M6195 249 c-4 -6 -5 -12 -2 -15 2 -3 7 2 10 11 7 17 1 20 -8 4z"/>
<path d="M6355 250 c-4 -6 -10 -8 -14 -6 -4 3 -8 -1 -8 -9 0 -13 4 -12 19 2
18 16 22 23 14 23 -3 0 -8 -5 -11 -10z"/>
<path d="M6524 238 c-12 -14 -13 -18 -3 -10 9 6 18 10 21 7 2 -3 5 2 5 10 0
19 0 19 -23 -7z"/>
<path d="M6450 241 c0 -6 4 -13 10 -16 6 -3 7 1 4 9 -7 18 -14 21 -14 7z"/>
<path d="M6359 218 c-10 -19 -2 -51 15 -65 21 -18 21 -18 5 2 -9 11 -15 30
-14 43 1 19 -2 29 -6 20z"/>
<path d="M6535 210 c-4 -6 -12 -7 -18 -4 -7 4 -9 4 -5 -1 4 -4 2 -15 -4 -24
-10 -12 -7 -12 8 2 11 9 23 15 26 12 2 -3 5 2 5 10 0 18 -3 19 -12 5z"/>
<path d="M5695 201 c-3 -5 -2 -12 3 -15 5 -3 9 1 9 9 0 17 -3 19 -12 6z"/>
<path d="M6304 182 c4 -3 14 -7 22 -8 9 -1 13 0 10 4 -4 3 -14 7 -22 8 -9 1
-13 0 -10 -4z"/>
<path d="M6402 163 c25 -27 39 -32 15 -5 -10 10 -15 21 -12 24 3 2 -2 5 -10 5
-12 0 -10 -6 7 -24z"/>
<path d="M6437 168 c19 -21 31 -25 14 -5 -6 8 -9 16 -6 19 3 2 -2 5 -10 5 -13
0 -13 -3 2 -19z"/>
<path d="M6467 179 c7 -7 15 -10 18 -7 3 3 -2 9 -12 12 -14 6 -15 5 -6 -5z"/>
<path d="M6531 167 c-8 -10 -7 -14 2 -14 8 0 14 6 14 14 0 7 -1 13 -2 13 -2 0
-8 -6 -14 -13z"/>
<path d="M6573 167 c0 -8 6 -14 14 -14 9 0 10 4 2 14 -6 7 -12 13 -14 13 -1 0
-2 -6 -2 -13z"/>
<path d="M5634 132 c0 -34 2 -39 23 -37 13 0 22 5 21 10 -2 6 -7 9 -13 7 -5
-1 -2 4 8 12 16 12 16 14 1 20 -22 9 -23 9 -20 -19 2 -13 -1 -22 -5 -19 -5 3
-7 18 -4 35 3 16 2 29 -3 29 -4 0 -8 -17 -8 -38z"/>
<path d="M5666 158 c3 -4 9 -8 15 -8 5 0 9 4 9 8 0 5 -7 9 -15 9 -8 0 -12 -4
-9 -9z"/>
<path d="M6271 167 c2 -1 13 -9 24 -17 19 -14 19 -14 6 3 -7 9 -18 17 -24 17
-6 0 -8 -1 -6 -3z"/>
<path d="M6232 135 c17 -18 98 -31 98 -16 0 4 -17 7 -37 6 -21 -1 -47 5 -58
14 -19 15 -19 15 -3 -4z"/>
<path d="M6519 127 c14 -15 25 -27 26 -27 0 0 1 10 2 23 0 12 -1 16 -4 9 -4
-10 -10 -9 -27 5 -17 14 -16 12 3 -10z"/>
<path d="M6454 126 c1 -8 5 -18 8 -22 4 -3 5 1 4 10 -1 8 -5 18 -8 22 -4 3 -5
-1 -4 -10z"/>
<path d="M6573 125 c0 -8 4 -15 9 -15 4 0 8 4 8 9 0 6 -4 12 -8 15 -5 3 -9 -1
-9 -9z"/>
<path d="M5370 120 c0 -5 5 -10 10 -10 6 0 10 5 10 10 0 6 -4 10 -10 10 -5 0
-10 -4 -10 -10z"/>
<path d="M6156 98 c3 -5 10 -6 15 -3 13 9 11 12 -6 12 -8 0 -12 -4 -9 -9z"/>
<path d="M6193 103 c4 -3 -1 -16 -10 -27 -18 -21 -18 -21 5 -2 24 21 29 36 10
36 -6 0 -8 -3 -5 -7z"/>
<path d="M6511 93 c7 -12 15 -20 18 -17 3 2 -3 12 -13 22 -17 16 -18 16 -5 -5z"/>
<path d="M5349 93 c-1 -5 -1 -11 0 -15 0 -5 -3 -8 -9 -8 -5 0 -10 5 -10 10 0
6 -5 10 -12 10 -6 0 -8 -3 -5 -7 4 -3 3 -11 -3 -17 -13 -16 46 -14 61 1 16 16
50 -2 43 -21 -7 -18 8 -27 26 -15 13 8 13 10 0 19 -8 5 -15 15 -15 21 0 16
-36 21 -52 7 -12 -10 -17 -4 -14 15 0 4 -1 7 -4 7 -3 0 -6 -3 -6 -7z"/>
<path d="M6262 84 c10 -10 20 -16 22 -13 3 3 -5 11 -17 18 -21 13 -21 12 -5
-5z"/>
<path d="M6369 84 c-11 -14 -24 -52 -14 -42 2 1 3 6 2 9 -1 4 7 16 17 28 11
12 17 21 14 21 -3 0 -12 -7 -19 -16z"/>
<path d="M6430 97 c0 -2 6 -10 14 -16 11 -9 16 -9 22 1 4 7 4 10 -1 6 -4 -4
-14 -3 -22 3 -7 6 -13 9 -13 6z"/>
<path d="M6479 83 c0 -5 -2 -16 -4 -26 -2 -11 -1 -16 3 -13 8 8 14 46 7 46 -3
0 -5 -3 -6 -7z"/>
<path d="M6389 63 c-13 -16 -12 -17 4 -4 16 13 21 21 13 21 -2 0 -10 -8 -17
-17z"/>
<path d="M6305 59 c-3 -4 2 -6 10 -5 21 3 28 13 10 13 -9 0 -18 -4 -20 -8z"/>
<path d="M6529 44 c-11 -14 -24 -52 -14 -42 2 1 3 6 2 9 -1 4 7 16 17 28 11
12 17 21 14 21 -3 0 -12 -7 -19 -16z"/>
<path d="M6439 38 c-5 -18 -6 -38 -1 -34 7 8 12 36 6 36 -2 0 -4 -1 -5 -2z"/>
<path d="M6399 13 c-13 -16 -12 -17 4 -4 9 7 17 15 17 17 0 8 -8 3 -21 -13z"/>
<path d="M6465 19 c-3 -4 2 -6 10 -5 21 3 28 13 10 13 -9 0 -18 -4 -20 -8z"/>
</g>
</svg>
